<svg width="251" height="58" viewBox="0 0 251 58" fill="none" xmlns="http://www.w3.org/2000/svg">
<rect x="0.5" y="0.5" width="250" height="57" fill="black" fill-opacity="0.5"/>
<rect x="0.5" y="0.5" width="250" height="57" stroke="black"/>
<path d="M88.3223 34H86.1943L85.4103 31.936H80.5143L79.7303 34H77.6023L81.7943 23.328H84.1303L88.3223 34ZM84.8823 30.288L82.9623 25.2L81.0423 30.288H84.8823ZM93.4559 34H89.4719V23.328H93.4399C96.7839 23.328 99.0239 25.536 99.0239 28.656C99.0239 31.808 96.7839 34 93.4559 34ZM93.4399 32.352C95.7599 32.352 97.1039 30.688 97.1039 28.656C97.1039 26.608 95.8239 24.976 93.4559 24.976H91.3439V32.352H93.4399ZM104.815 34H100.831V23.328H104.799C108.143 23.328 110.383 25.536 110.383 28.656C110.383 31.808 108.143 34 104.815 34ZM104.799 32.352C107.119 32.352 108.463 30.688 108.463 28.656C108.463 26.608 107.183 24.976 104.815 24.976H102.703V32.352H104.799ZM120.732 34H118.86V24.976H115.628V23.328H123.964V24.976H120.732V34ZM130.136 34.192C126.936 34.192 124.68 31.856 124.68 28.672C124.68 25.488 126.936 23.152 130.136 23.152C133.32 23.152 135.592 25.488 135.592 28.672C135.592 31.856 133.32 34.192 130.136 34.192ZM130.136 32.528C132.28 32.528 133.672 30.864 133.672 28.672C133.672 26.464 132.28 24.816 130.136 24.816C127.976 24.816 126.6 26.464 126.6 28.672C126.6 30.864 127.976 32.528 130.136 32.528ZM146.895 34H141.503V23.328H146.751C148.719 23.328 149.791 24.544 149.791 26.048C149.791 27.376 148.927 28.288 147.935 28.496C149.087 28.672 149.999 29.808 149.999 31.104C149.999 32.768 148.911 34 146.895 34ZM146.383 27.728C147.327 27.728 147.871 27.168 147.871 26.352C147.871 25.568 147.327 24.976 146.383 24.976H143.375V27.728H146.383ZM146.463 32.352C147.471 32.352 148.079 31.792 148.079 30.864C148.079 30.064 147.519 29.376 146.463 29.376H143.375V32.352H146.463ZM161.51 34H159.382L158.598 31.936H153.702L152.918 34H150.79L154.982 23.328H157.318L161.51 34ZM158.07 30.288L156.15 25.2L154.23 30.288H158.07ZM167.233 34.208C164.129 34.208 161.633 32.016 161.633 28.672C161.633 25.312 164.129 23.152 167.233 23.152C169.313 23.152 170.673 24.144 171.521 25.36L170.001 26.24C169.425 25.44 168.417 24.816 167.233 24.816C165.121 24.816 163.553 26.416 163.553 28.672C163.553 30.896 165.121 32.528 167.233 32.528C168.321 32.528 169.281 32.032 169.761 31.568V29.92H166.561V28.272H171.617V32.256C170.577 33.424 169.073 34.208 167.233 34.208Z" fill="white"/>
</svg>
