<svg width="14" height="19" viewBox="0 0 14 19" fill="none" xmlns="http://www.w3.org/2000/svg">
<path d="M13.6422 4.294C13.7383 4.29608 13.8298 4.33663 13.8968 4.40687C13.9637 4.47711 14.0008 4.57138 14 4.66925V18.624C14.001 18.722 13.964 18.8164 13.897 18.8869C13.8301 18.9573 13.7385 18.9979 13.6422 19H0.357798C0.261525 18.9979 0.169946 18.9573 0.102955 18.8869C0.0359653 18.8164 -0.0010245 18.722 2.15989e-05 18.624V4.66925C-0.000818468 4.57138 0.0362628 4.47711 0.103231 4.40687C0.170199 4.33663 0.261661 4.29608 0.357798 4.294H4.08723V3.059C4.08723 1.37196 5.39389 0 7 0C8.60611 0 9.91277 1.37196 9.91277 3.059V4.294H13.6422ZM4.80278 4.294H9.18944V3.059C9.18944 1.786 8.20633 0.751292 6.99611 0.751292C5.78667 0.751292 4.80278 1.786 4.80278 3.059V4.294ZM13.2844 5.04529H9.91277V6.81625C9.91382 6.91426 9.87683 7.00873 9.80984 7.07914C9.74285 7.14955 9.65127 7.19021 9.55499 7.19229C9.45872 7.19021 9.36714 7.14955 9.30015 7.07914C9.23316 7.00873 9.19617 6.91426 9.19722 6.81625V5.04529H4.80278V6.81625C4.80383 6.91426 4.76684 7.00873 4.69985 7.07914C4.63286 7.14955 4.54128 7.19021 4.44501 7.19229C4.34873 7.19021 4.25716 7.14955 4.19017 7.07914C4.12318 7.00873 4.08619 6.91426 4.08723 6.81625V5.04529H0.715575V18.2479H13.2844V5.04529Z" fill="black"/>
</svg>
