<svg width="228" height="115" viewBox="0 0 228 115" fill="none" xmlns="http://www.w3.org/2000/svg">
<rect width="228" height="115" fill="#425921"/>
<path d="M24.5585 24.3323C24.5585 24.8003 24.4085 25.2203 24.1085 25.5923C23.8205 25.9523 23.4485 26.2583 22.9925 26.5103C22.5365 26.7623 22.0265 26.9543 21.4625 27.0863C20.9105 27.2183 20.3705 27.2843 19.8425 27.2843C18.9905 27.2843 18.1865 27.1343 17.4305 26.8343C16.6865 26.5343 16.0325 26.1143 15.4685 25.5743C14.9165 25.0223 14.4785 24.3683 14.1545 23.6123C13.8305 22.8443 13.6685 21.9923 13.6685 21.0563C13.6685 20.1203 13.8305 19.2743 14.1545 18.5183C14.4785 17.7503 14.9165 17.0963 15.4685 16.5563C16.0325 16.0163 16.6865 15.5963 17.4305 15.2963C18.1865 14.9963 18.9905 14.8463 19.8425 14.8463C20.7425 14.8463 21.5345 15.0023 22.2185 15.3143C22.9025 15.6143 23.4845 16.0043 23.9645 16.4843C24.0365 16.5443 24.0845 16.6223 24.1085 16.7183C24.1445 16.8023 24.1625 16.8923 24.1625 16.9883C24.1625 17.1923 24.0965 17.3603 23.9645 17.4923C23.8445 17.6243 23.6825 17.6903 23.4785 17.6903C23.2985 17.6903 23.1365 17.6183 22.9925 17.4743C22.6085 17.0663 22.1345 16.7483 21.5705 16.5203C21.0185 16.2923 20.4425 16.1783 19.8425 16.1783C19.1825 16.1783 18.5705 16.2983 18.0065 16.5383C17.4425 16.7783 16.9505 17.1143 16.5305 17.5463C16.1225 17.9783 15.7985 18.4943 15.5585 19.0943C15.3305 19.6823 15.2165 20.3363 15.2165 21.0563C15.2165 21.7643 15.3305 22.4183 15.5585 23.0183C15.7985 23.6183 16.1225 24.1343 16.5305 24.5663C16.9505 24.9983 17.4425 25.3403 18.0065 25.5923C18.5705 25.8323 19.1825 25.9523 19.8425 25.9523C20.2025 25.9523 20.5445 25.9163 20.8685 25.8443C21.1925 25.7603 21.4925 25.6583 21.7685 25.5383C22.0445 25.4063 22.2905 25.2623 22.5065 25.1063C22.7345 24.9503 22.9205 24.8003 23.0645 24.6563V22.2083H19.4825C19.3025 22.2083 19.1465 22.1483 19.0145 22.0283C18.8945 21.8963 18.8345 21.7283 18.8345 21.5243C18.8345 21.3443 18.8945 21.1943 19.0145 21.0743C19.1465 20.9423 19.3025 20.8763 19.4825 20.8763H23.4785C23.7785 20.8763 24.0305 20.9843 24.2345 21.2003C24.4505 21.4043 24.5585 21.6563 24.5585 21.9563V24.3323ZM35.6175 18.6623C35.6175 19.2023 35.5335 19.6823 35.3655 20.1023C35.1975 20.5223 34.9695 20.8763 34.6815 21.1643C34.3935 21.4523 34.0575 21.6803 33.6735 21.8483C33.3015 22.0163 32.9115 22.1183 32.5035 22.1543L35.0775 26.0603C35.1495 26.1923 35.1855 26.3183 35.1855 26.4383C35.1855 26.6183 35.1135 26.7863 34.9695 26.9423C34.8375 27.0863 34.6635 27.1583 34.4475 27.1583C34.3275 27.1583 34.2135 27.1283 34.1055 27.0683C34.0095 27.0203 33.9255 26.9423 33.8535 26.8343L30.9195 22.2803H28.5255V26.4203C28.5255 26.6243 28.4535 26.7983 28.3095 26.9423C28.1655 27.0863 27.9855 27.1583 27.7695 27.1583C27.5655 27.1583 27.3915 27.0863 27.2475 26.9423C27.1035 26.7983 27.0315 26.6243 27.0315 26.4203V16.1243C27.0315 15.8243 27.1335 15.5723 27.3375 15.3683C27.5535 15.1523 27.8115 15.0443 28.1115 15.0443H31.8555C32.4075 15.0443 32.9115 15.1283 33.3675 15.2963C33.8235 15.4643 34.2195 15.7103 34.5555 16.0343C34.8915 16.3463 35.1495 16.7243 35.3295 17.1683C35.5215 17.6123 35.6175 18.1103 35.6175 18.6623ZM31.6755 16.3763H28.5255V20.9663H31.6755C32.3955 20.9663 32.9715 20.7563 33.4035 20.3363C33.8475 19.9043 34.0695 19.3463 34.0695 18.6623C34.0695 17.9783 33.8475 17.4263 33.4035 17.0063C32.9715 16.5863 32.3955 16.3763 31.6755 16.3763ZM46.0017 26.3663C46.0017 26.5703 45.9357 26.7383 45.8037 26.8703C45.6837 26.9903 45.5337 27.0503 45.3537 27.0503H39.1077C38.8077 27.0503 38.5497 26.9483 38.3337 26.7443C38.1297 26.5283 38.0277 26.2703 38.0277 25.9703V16.1243C38.0277 15.8243 38.1297 15.5723 38.3337 15.3683C38.5497 15.1523 38.8077 15.0443 39.1077 15.0443H45.3537C45.5337 15.0443 45.6837 15.1103 45.8037 15.2423C45.9357 15.3623 46.0017 15.5243 46.0017 15.7283C46.0017 15.9083 45.9357 16.0643 45.8037 16.1963C45.6837 16.3163 45.5337 16.3763 45.3537 16.3763H39.5217V20.2463H45.2277C45.4077 20.2463 45.5577 20.3123 45.6777 20.4443C45.8097 20.5643 45.8757 20.7263 45.8757 20.9303C45.8757 21.1103 45.8097 21.2663 45.6777 21.3983C45.5577 21.5183 45.4077 21.5783 45.2277 21.5783H39.5217V25.7183H45.3537C45.5337 25.7183 45.6837 25.7843 45.8037 25.9163C45.9357 26.0363 46.0017 26.1863 46.0017 26.3663ZM56.2947 26.3663C56.2947 26.5703 56.2287 26.7383 56.0967 26.8703C55.9767 26.9903 55.8267 27.0503 55.6467 27.0503H49.4007C49.1007 27.0503 48.8427 26.9483 48.6267 26.7443C48.4227 26.5283 48.3207 26.2703 48.3207 25.9703V16.1243C48.3207 15.8243 48.4227 15.5723 48.6267 15.3683C48.8427 15.1523 49.1007 15.0443 49.4007 15.0443H55.6467C55.8267 15.0443 55.9767 15.1103 56.0967 15.2423C56.2287 15.3623 56.2947 15.5243 56.2947 15.7283C56.2947 15.9083 56.2287 16.0643 56.0967 16.1963C55.9767 16.3163 55.8267 16.3763 55.6467 16.3763H49.8147V20.2463H55.5207C55.7007 20.2463 55.8507 20.3123 55.9707 20.4443C56.1027 20.5643 56.1687 20.7263 56.1687 20.9303C56.1687 21.1103 56.1027 21.2663 55.9707 21.3983C55.8507 21.5183 55.7007 21.5783 55.5207 21.5783H49.8147V25.7183H55.6467C55.8267 25.7183 55.9767 25.7843 56.0967 25.9163C56.2287 26.0363 56.2947 26.1863 56.2947 26.3663ZM68.5498 26.3123C68.5498 26.4203 68.5258 26.5283 68.4778 26.6363C68.4418 26.7323 68.3818 26.8223 68.2978 26.9063C68.2258 26.9783 68.1298 27.0383 68.0098 27.0863C67.9018 27.1343 67.7818 27.1583 67.6498 27.1583C67.5058 27.1583 67.3678 27.1223 67.2358 27.0503C67.1038 26.9903 66.9958 26.9003 66.9118 26.7803L60.1078 17.4743V26.4203C60.1078 26.6243 60.0358 26.7983 59.8918 26.9423C59.7478 27.0863 59.5678 27.1583 59.3518 27.1583C59.1478 27.1583 58.9738 27.0863 58.8298 26.9423C58.6858 26.7983 58.6138 26.6243 58.6138 26.4203V15.8363C58.6138 15.7163 58.6378 15.6023 58.6858 15.4943C58.7338 15.3863 58.7998 15.2903 58.8838 15.2063C58.9678 15.1223 59.0638 15.0563 59.1718 15.0083C59.2918 14.9603 59.4238 14.9363 59.5678 14.9363C59.7238 14.9363 59.8678 14.9723 59.9998 15.0443C60.1438 15.1043 60.2638 15.2003 60.3598 15.3323L67.0558 24.4223V15.6563C67.0558 15.4523 67.1278 15.2843 67.2718 15.1523C67.4158 15.0083 67.6018 14.9363 67.8298 14.9363C68.0338 14.9363 68.2018 15.0083 68.3338 15.1523C68.4778 15.2843 68.5498 15.4523 68.5498 15.6563V26.3123Z" fill="white"/>
<path d="M17.802 52.2183C15.408 52.2183 14.162 50.7623 14.162 48.4663V42.7123H14.974V48.4523C14.974 50.3423 15.968 51.4903 17.802 51.4903C19.636 51.4903 20.63 50.3423 20.63 48.4523V42.7123H21.442V48.4663C21.442 50.7763 20.21 52.2183 17.802 52.2183ZM29.0237 52.0503H28.2957V47.4723C28.2957 46.1703 27.6377 45.7783 26.6577 45.7783C25.7897 45.7783 24.8937 46.3243 24.4597 46.9403V52.0503H23.7317V45.2883H24.4597V46.3103C24.9497 45.7223 25.9157 45.1203 26.8957 45.1203C28.2677 45.1203 29.0237 45.7923 29.0237 47.3183V52.0503ZM33.3082 52.2183C32.2162 52.2183 31.3762 51.8963 30.7042 51.1403L31.1382 50.6083C31.5722 51.1543 32.3702 51.6023 33.3222 51.6023C34.4562 51.6023 35.1282 51.0143 35.1282 50.2303C35.1282 48.3823 30.8582 49.4323 30.8582 46.9963C30.8582 45.9603 31.7402 45.1203 33.2662 45.1203C34.4282 45.1203 35.1982 45.5683 35.6882 46.1143L35.2822 46.6323C34.8902 46.1003 34.1622 45.7363 33.2662 45.7363C32.2162 45.7363 31.5862 46.2683 31.5862 46.9683C31.5862 48.6623 35.8422 47.6263 35.8422 50.2303C35.8422 51.3223 35.0022 52.2183 33.3082 52.2183ZM39.188 52.2183C38.292 52.2183 37.858 51.6723 37.858 50.7483V45.9323H36.738V45.2883H37.858V43.4403H38.6V45.2883H39.972V45.9323H38.6V50.6363C38.6 51.1823 38.824 51.5603 39.3 51.5603C39.622 51.5603 39.902 51.4063 40.056 51.2383L40.336 51.7983C40.07 52.0503 39.748 52.2183 39.188 52.2183ZM41.9375 44.2243C41.6435 44.2243 41.3775 43.9723 41.3775 43.6643C41.3775 43.3563 41.6435 43.1183 41.9375 43.1183C42.2455 43.1183 42.4975 43.3563 42.4975 43.6643C42.4975 43.9723 42.2455 44.2243 41.9375 44.2243ZM42.3015 52.0503H41.5735V45.2883H42.3015V52.0503ZM46.0376 52.2183C45.1416 52.2183 44.7076 51.6723 44.7076 50.7483V45.9323H43.5876V45.2883H44.7076V43.4403H45.4496V45.2883H46.8216V45.9323H45.4496V50.6363C45.4496 51.1823 45.6736 51.5603 46.1496 51.5603C46.4716 51.5603 46.7516 51.4063 46.9056 51.2383L47.1856 51.7983C46.9196 52.0503 46.5976 52.2183 46.0376 52.2183ZM51.3211 52.2183C49.3331 52.2183 48.0451 50.6363 48.0451 48.6623C48.0451 46.6883 49.3331 45.1203 51.3211 45.1203C52.4971 45.1203 53.1691 45.5823 53.7151 46.2683L53.2111 46.7163C52.7211 46.0443 52.1051 45.7783 51.3631 45.7783C49.7811 45.7783 48.8151 47.0383 48.8151 48.6623C48.8151 50.2863 49.7811 51.5603 51.3631 51.5603C52.1051 51.5603 52.7211 51.2803 53.2111 50.6083L53.7151 51.0563C53.1691 51.7563 52.4971 52.2183 51.3211 52.2183ZM60.633 52.0503H59.905V47.4443C59.905 46.1423 59.247 45.7783 58.267 45.7783C57.399 45.7783 56.503 46.3243 56.069 46.9403V52.0503H55.341V42.7123H56.069V46.3103C56.559 45.7223 57.525 45.1203 58.505 45.1203C59.877 45.1203 60.633 45.7643 60.633 47.2903V52.0503ZM65.8976 52.2183C63.9236 52.2183 62.5236 50.7483 62.5236 48.6623C62.5236 46.7023 63.8956 45.1203 65.7716 45.1203C67.8296 45.1203 68.9636 46.7443 68.9636 48.7043V48.9003H63.3076C63.3776 50.3703 64.3576 51.5883 65.9536 51.5883C66.8076 51.5883 67.5916 51.2663 68.1656 50.6503L68.5436 51.1263C67.8716 51.8263 67.0176 52.2183 65.8976 52.2183ZM68.2216 48.3263C68.2076 47.1783 67.4516 45.7503 65.7576 45.7503C64.1616 45.7503 63.3636 47.1503 63.3076 48.3263H68.2216ZM76.5709 52.0503H75.8289V50.9723C75.3529 51.6723 74.4849 52.2183 73.4769 52.2183C71.6849 52.2183 70.4669 50.8463 70.4669 48.6763C70.4669 46.5343 71.6849 45.1203 73.4769 45.1203C74.4429 45.1203 75.2969 45.6103 75.8289 46.3803V42.7123H76.5709V52.0503ZM73.6029 51.5603C74.5549 51.5603 75.4369 51.0003 75.8289 50.3563V47.0103C75.4369 46.3523 74.5549 45.7783 73.6029 45.7783C72.1049 45.7783 71.2369 47.0383 71.2369 48.6763C71.2369 50.3143 72.1049 51.5603 73.6029 51.5603ZM83.096 52.3303H82.494V42.4323H83.096V52.3303ZM91.4932 52.2183C89.9672 52.2183 88.8612 51.5043 88.3152 50.6643L88.8612 50.1883C89.3792 50.9303 90.2892 51.4903 91.4792 51.4903C92.9212 51.4903 93.8312 50.7343 93.8312 49.5023C93.8312 48.1583 92.7252 47.5983 91.3252 47.5983C90.9472 47.5983 90.5972 47.6123 90.4572 47.6263V46.8703C90.5972 46.8843 90.9472 46.8843 91.3252 46.8843C92.5712 46.8843 93.6912 46.3523 93.6912 45.1063C93.6912 43.9443 92.6552 43.3003 91.4512 43.3003C90.3872 43.3003 89.6312 43.7203 88.9452 44.4903L88.4412 43.9863C89.0992 43.1883 90.1352 42.5723 91.4932 42.5723C93.1172 42.5723 94.5032 43.4543 94.5032 45.0363C94.5032 46.4643 93.2992 47.0803 92.5012 47.2203C93.3132 47.3043 94.6432 48.0043 94.6432 49.5443C94.6432 51.0843 93.4812 52.2183 91.4932 52.2183ZM101.065 52.0503H100.267V42.7123H103.767C105.559 42.7123 106.581 43.9723 106.581 45.4423C106.581 46.9123 105.545 48.1723 103.767 48.1723H101.065V52.0503ZM103.683 47.4443C104.929 47.4443 105.741 46.6043 105.741 45.4423C105.741 44.2663 104.929 43.4403 103.683 43.4403H101.065V47.4443H103.683ZM108.602 44.2243C108.308 44.2243 108.042 43.9723 108.042 43.6643C108.042 43.3563 108.308 43.1183 108.602 43.1183C108.91 43.1183 109.162 43.3563 109.162 43.6643C109.162 43.9723 108.91 44.2243 108.602 44.2243ZM108.966 52.0503H108.238V45.2883H108.966V52.0503ZM114.228 52.2183C112.254 52.2183 110.854 50.7483 110.854 48.6623C110.854 46.7023 112.226 45.1203 114.102 45.1203C116.16 45.1203 117.294 46.7443 117.294 48.7043V48.9003H111.638C111.708 50.3703 112.688 51.5883 114.284 51.5883C115.138 51.5883 115.922 51.2663 116.496 50.6503L116.874 51.1263C116.202 51.8263 115.348 52.2183 114.228 52.2183ZM116.552 48.3263C116.538 47.1783 115.782 45.7503 114.088 45.7503C112.492 45.7503 111.694 47.1503 111.638 48.3263H116.552ZM122.073 52.2183C120.085 52.2183 118.797 50.6363 118.797 48.6623C118.797 46.6883 120.085 45.1203 122.073 45.1203C123.249 45.1203 123.921 45.5823 124.467 46.2683L123.963 46.7163C123.473 46.0443 122.857 45.7783 122.115 45.7783C120.533 45.7783 119.567 47.0383 119.567 48.6623C119.567 50.2863 120.533 51.5603 122.115 51.5603C122.857 51.5603 123.473 51.2803 123.963 50.6083L124.467 51.0563C123.921 51.7563 123.249 52.2183 122.073 52.2183ZM129.089 52.2183C127.115 52.2183 125.715 50.7483 125.715 48.6623C125.715 46.7023 127.087 45.1203 128.963 45.1203C131.021 45.1203 132.155 46.7443 132.155 48.7043V48.9003H126.499C126.569 50.3703 127.549 51.5883 129.145 51.5883C129.999 51.5883 130.783 51.2663 131.357 50.6503L131.735 51.1263C131.063 51.8263 130.209 52.2183 129.089 52.2183ZM131.413 48.3263C131.399 47.1783 130.643 45.7503 128.949 45.7503C127.353 45.7503 126.555 47.1503 126.499 48.3263H131.413ZM138.485 52.0503H137.687V42.7123H141.187C142.979 42.7123 144.001 43.9723 144.001 45.4423C144.001 46.9123 142.965 48.1723 141.187 48.1723H138.485V52.0503ZM141.103 47.4443C142.349 47.4443 143.161 46.6043 143.161 45.4423C143.161 44.2663 142.349 43.4403 141.103 43.4403H138.485V47.4443H141.103ZM146.385 52.0503H145.657V45.2883H146.385V46.4503C146.959 45.6943 147.729 45.1483 148.667 45.1483V45.9463C148.541 45.9183 148.443 45.9183 148.303 45.9183C147.617 45.9183 146.693 46.5343 146.385 47.1223V52.0503ZM150.465 44.2243C150.171 44.2243 149.905 43.9723 149.905 43.6643C149.905 43.3563 150.171 43.1183 150.465 43.1183C150.773 43.1183 151.025 43.3563 151.025 43.6643C151.025 43.9723 150.773 44.2243 150.465 44.2243ZM150.829 52.0503H150.101V45.2883H150.829V52.0503ZM158.387 52.0503H157.659V47.4723C157.659 46.1703 157.001 45.7783 156.021 45.7783C155.153 45.7783 154.257 46.3243 153.823 46.9403V52.0503H153.095V45.2883H153.823V46.3103C154.313 45.7223 155.279 45.1203 156.259 45.1203C157.631 45.1203 158.387 45.7923 158.387 47.3183V52.0503ZM162.125 52.2183C161.229 52.2183 160.795 51.6723 160.795 50.7483V45.9323H159.675V45.2883H160.795V43.4403H161.537V45.2883H162.909V45.9323H161.537V50.6363C161.537 51.1823 161.761 51.5603 162.237 51.5603C162.559 51.5603 162.839 51.4063 162.993 51.2383L163.273 51.7983C163.007 52.0503 162.685 52.2183 162.125 52.2183ZM167.507 52.2183C165.533 52.2183 164.133 50.7483 164.133 48.6623C164.133 46.7023 165.505 45.1203 167.381 45.1203C169.439 45.1203 170.573 46.7443 170.573 48.7043V48.9003H164.917C164.987 50.3703 165.967 51.5883 167.563 51.5883C168.417 51.5883 169.201 51.2663 169.775 50.6503L170.153 51.1263C169.481 51.8263 168.627 52.2183 167.507 52.2183ZM169.831 48.3263C169.817 47.1783 169.061 45.7503 167.367 45.7503C165.771 45.7503 164.973 47.1503 164.917 48.3263H169.831ZM178.18 52.0503H177.438V50.9723C176.962 51.6723 176.094 52.2183 175.086 52.2183C173.294 52.2183 172.076 50.8463 172.076 48.6763C172.076 46.5343 173.294 45.1203 175.086 45.1203C176.052 45.1203 176.906 45.6103 177.438 46.3803V42.7123H178.18V52.0503ZM175.212 51.5603C176.164 51.5603 177.046 51.0003 177.438 50.3563V47.0103C177.046 46.3523 176.164 45.7783 175.212 45.7783C173.714 45.7783 172.846 47.0383 172.846 48.6763C172.846 50.3143 173.714 51.5603 175.212 51.5603ZM19.3 72.0503H13.966V62.7123H14.778V71.3223H19.3V72.0503ZM25.7088 72.0503H24.9808V71.2523C24.3788 71.9103 23.6228 72.2183 22.6848 72.2183C21.5228 72.2183 20.3188 71.4203 20.3188 69.9643C20.3188 68.4943 21.5088 67.7243 22.6848 67.7243C23.6228 67.7243 24.3928 68.0323 24.9808 68.6903V67.3183C24.9808 66.3103 24.1688 65.7643 23.1748 65.7643C22.3208 65.7643 21.6628 66.0583 21.0468 66.7583L20.6408 66.2543C21.3408 65.4983 22.1248 65.1203 23.2448 65.1203C24.6168 65.1203 25.7088 65.7783 25.7088 67.2903V72.0503ZM22.9368 71.6443C23.7488 71.6443 24.5048 71.3363 24.9808 70.7203V69.2363C24.5048 68.6063 23.7488 68.2983 22.9368 68.2983C21.8308 68.2983 21.0888 69.0123 21.0888 69.9783C21.0888 70.9303 21.8308 71.6443 22.9368 71.6443ZM34.4796 72.0503H33.7796L31.8896 66.2683L29.9856 72.0503H29.2856L27.0876 65.2883H27.8716L29.6636 71.0283L31.5676 65.2883H32.1976L34.1016 71.0283L35.8936 65.2883H36.6776L34.4796 72.0503ZM43.3381 72.0503H42.6101V67.4723C42.6101 66.1703 41.9521 65.7783 40.9721 65.7783C40.1041 65.7783 39.2081 66.3243 38.7741 66.9403V72.0503H38.0461V65.2883H38.7741V66.3103C39.2641 65.7223 40.2301 65.1203 41.2101 65.1203C42.5821 65.1203 43.3381 65.7923 43.3381 67.3183V72.0503ZM49.8597 72.3303H49.2577V62.4323H49.8597V72.3303ZM59.9789 72.2183C57.2349 72.2183 55.4429 70.1183 55.4429 67.3883C55.4429 64.6583 57.2349 62.5583 59.9789 62.5583C62.7089 62.5583 64.5149 64.6583 64.5149 67.3883C64.5149 70.1183 62.7089 72.2183 59.9789 72.2183ZM59.9789 71.4903C62.2189 71.4903 63.6749 69.7403 63.6749 67.3883C63.6749 65.0223 62.2189 63.2863 59.9789 63.2863C57.7249 63.2863 56.2829 65.0223 56.2829 67.3883C56.2829 69.7403 57.7249 71.4903 59.9789 71.4903ZM69.2661 72.0503H68.4541V63.4403H65.4021V62.7123H72.3181V63.4403H69.2661V72.0503ZM79.1145 72.0503H73.7805V62.7123H74.5925V71.3223H79.1145V72.0503ZM83.3757 68.9983H80.0157V68.3263H83.3757V68.9983ZM90.737 72.0503H84.577V71.3923C87.755 68.8303 89.883 67.0103 89.883 65.2043C89.883 63.8603 88.777 63.3003 87.755 63.3003C86.593 63.3003 85.697 63.8043 85.193 64.5183L84.647 64.0143C85.305 63.1183 86.439 62.5723 87.755 62.5723C89.127 62.5723 90.695 63.3563 90.695 65.2043C90.695 67.2623 88.525 69.1383 85.823 71.3223H90.737V72.0503ZM96.1274 72.2183C94.5734 72.2183 93.6214 71.6163 92.9774 70.6923L93.5094 70.1603C94.1114 71.0143 94.9234 71.4903 96.1274 71.4903C97.4854 71.4903 98.4654 70.5103 98.4654 69.2363C98.4654 67.8223 97.4854 66.9543 96.1414 66.9543C95.2874 66.9543 94.5594 67.2343 93.8734 67.8643L93.2714 67.6123V62.7123H98.6614V63.4403H94.0694V67.0943C94.5314 66.6463 95.3294 66.2263 96.2954 66.2263C97.8634 66.2263 99.2774 67.2623 99.2774 69.2083C99.2774 71.0703 97.8494 72.2183 96.1274 72.2183ZM103.87 68.9983H100.51V68.3263H103.87V68.9983ZM107.913 72.2183C106.387 72.2183 105.281 71.5043 104.735 70.6643L105.281 70.1883C105.799 70.9303 106.709 71.4903 107.899 71.4903C109.341 71.4903 110.251 70.7343 110.251 69.5023C110.251 68.1583 109.145 67.5983 107.745 67.5983C107.367 67.5983 107.017 67.6123 106.877 67.6263V66.8703C107.017 66.8843 107.367 66.8843 107.745 66.8843C108.991 66.8843 110.111 66.3523 110.111 65.1063C110.111 63.9443 109.075 63.3003 107.871 63.3003C106.807 63.3003 106.051 63.7203 105.365 64.4903L104.861 63.9863C105.519 63.1883 106.555 62.5723 107.913 62.5723C109.537 62.5723 110.923 63.4543 110.923 65.0363C110.923 66.4643 109.719 67.0803 108.921 67.2203C109.733 67.3043 111.063 68.0043 111.063 69.5443C111.063 71.0843 109.901 72.2183 107.913 72.2183ZM118.846 72.0503H112.686V71.3923C115.864 68.8303 117.992 67.0103 117.992 65.2043C117.992 63.8603 116.886 63.3003 115.864 63.3003C114.702 63.3003 113.806 63.8043 113.302 64.5183L112.756 64.0143C113.414 63.1183 114.548 62.5723 115.864 62.5723C117.236 62.5723 118.804 63.3563 118.804 65.2043C118.804 67.2623 116.634 69.1383 113.932 71.3223H118.846V72.0503ZM122.641 72.0503H121.759L125.679 63.4403H120.513V62.7123H126.631V63.2723L122.641 72.0503Z" fill="white"/>
<path d="M17.06 98.168C15.52 98.168 14.358 97.538 13.644 96.684L14.162 96.082C14.764 96.768 15.744 97.44 17.088 97.44C18.992 97.44 19.538 96.376 19.538 95.578C19.538 92.834 13.938 94.262 13.938 91C13.938 89.474 15.31 88.508 17.004 88.508C18.39 88.508 19.454 88.998 20.168 89.824L19.636 90.412C18.964 89.6 18.012 89.236 16.962 89.236C15.716 89.236 14.778 89.95 14.778 90.958C14.778 93.352 20.378 92.036 20.378 95.522C20.378 96.726 19.58 98.168 17.06 98.168ZM27.5608 98H26.8328V93.394C26.8328 92.092 26.1748 91.728 25.1948 91.728C24.3268 91.728 23.4308 92.274 22.9968 92.89V98H22.2688V88.662H22.9968V92.26C23.4868 91.672 24.4528 91.07 25.4328 91.07C26.8048 91.07 27.5608 91.714 27.5608 93.24V98ZM32.6853 98.168C30.7113 98.168 29.4513 96.586 29.4513 94.612C29.4513 92.638 30.7113 91.07 32.6853 91.07C34.6873 91.07 35.9473 92.638 35.9473 94.612C35.9473 96.586 34.6873 98.168 32.6853 98.168ZM32.6853 97.51C34.2813 97.51 35.1633 96.124 35.1633 94.612C35.1633 93.114 34.2813 91.728 32.6853 91.728C31.1173 91.728 30.2213 93.114 30.2213 94.612C30.2213 96.124 31.1173 97.51 32.6853 97.51ZM40.9074 98.168C39.9554 98.168 39.1014 97.678 38.5554 96.908V100.576H37.8274V91.238H38.5554V92.302C39.0314 91.616 39.8994 91.07 40.9074 91.07C42.7134 91.07 43.9314 92.442 43.9314 94.612C43.9314 96.768 42.7134 98.168 40.9074 98.168ZM40.7814 97.51C42.2934 97.51 43.1474 96.25 43.1474 94.612C43.1474 92.974 42.2934 91.728 40.7814 91.728C39.8434 91.728 38.9474 92.288 38.5554 92.932V96.278C38.9474 96.922 39.8434 97.51 40.7814 97.51ZM53.8038 98.182C51.1718 98.182 49.0718 96.222 49.0718 93.338C49.0718 90.454 51.1718 88.508 53.8038 88.508C55.3438 88.508 56.4638 89.124 57.3178 90.104L56.7158 90.538C56.0578 89.754 54.9938 89.236 53.8038 89.236C51.6198 89.236 49.9118 90.902 49.9118 93.338C49.9118 95.746 51.6198 97.454 53.8038 97.454C55.0498 97.454 56.0438 96.838 56.5478 96.32V94.08H53.0198V93.366H57.3458V96.628C56.5198 97.552 55.2738 98.182 53.8038 98.182ZM60.0749 98H59.3469V91.238H60.0749V92.4C60.6489 91.644 61.4189 91.098 62.3569 91.098V91.896C62.2309 91.868 62.1329 91.868 61.9929 91.868C61.3069 91.868 60.3829 92.484 60.0749 93.072V98ZM66.7863 98.168C64.8123 98.168 63.4123 96.698 63.4123 94.612C63.4123 92.652 64.7843 91.07 66.6603 91.07C68.7183 91.07 69.8522 92.694 69.8522 94.654V94.85H64.1963C64.2663 96.32 65.2463 97.538 66.8423 97.538C67.6963 97.538 68.4803 97.216 69.0543 96.6L69.4323 97.076C68.7603 97.776 67.9063 98.168 66.7863 98.168ZM69.1103 94.276C69.0963 93.128 68.3403 91.7 66.6463 91.7C65.0503 91.7 64.2523 93.1 64.1963 94.276H69.1103ZM74.7296 98.168C72.7556 98.168 71.3556 96.698 71.3556 94.612C71.3556 92.652 72.7276 91.07 74.6036 91.07C76.6616 91.07 77.7956 92.694 77.7956 94.654V94.85H72.1396C72.2096 96.32 73.1896 97.538 74.7856 97.538C75.6396 97.538 76.4236 97.216 76.9976 96.6L77.3756 97.076C76.7036 97.776 75.8496 98.168 74.7296 98.168ZM77.0536 94.276C77.0396 93.128 76.2836 91.7 74.5896 91.7C72.9936 91.7 72.1956 93.1 72.1396 94.276H77.0536ZM84.969 98H84.241V93.422C84.241 92.12 83.583 91.728 82.603 91.728C81.735 91.728 80.839 92.274 80.405 92.89V98H79.677V91.238H80.405V92.26C80.895 91.672 81.861 91.07 82.841 91.07C84.213 91.07 84.969 91.742 84.969 93.268V98Z" fill="white"/>
<path d="M13 99.862H37.5481V100.142H13V99.862ZM38.8347 99.862H86.103V100.142H38.8347V99.862Z" fill="white"/>
</svg>
