<svg width="228" height="114" viewBox="0 0 228 114" fill="none" xmlns="http://www.w3.org/2000/svg">
<rect width="228" height="114" fill="white"/>
<path d="M21.0059 26.3663C21.0059 26.5703 20.9399 26.7383 20.8079 26.8703C20.6879 26.9903 20.5379 27.0503 20.3579 27.0503H14.9039C14.6039 27.0503 14.3459 26.9483 14.1299 26.7443C13.9259 26.5283 13.8239 26.2703 13.8239 25.9703V15.6563C13.8239 15.4523 13.8959 15.2843 14.0399 15.1523C14.1839 15.0083 14.3699 14.9363 14.5979 14.9363C14.8019 14.9363 14.9699 15.0083 15.1019 15.1523C15.2459 15.2843 15.3179 15.4523 15.3179 15.6563V25.7183H20.3579C20.5379 25.7183 20.6879 25.7843 20.8079 25.9163C20.9399 26.0363 21.0059 26.1863 21.0059 26.3663ZM24.5387 26.4203C24.5387 26.6243 24.4667 26.7983 24.3227 26.9423C24.1787 27.0863 23.9987 27.1583 23.7827 27.1583C23.5787 27.1583 23.4047 27.0863 23.2607 26.9423C23.1167 26.7983 23.0447 26.6243 23.0447 26.4203V15.6563C23.0447 15.4523 23.1167 15.2843 23.2607 15.1523C23.4047 15.0083 23.5907 14.9363 23.8187 14.9363C24.0227 14.9363 24.1907 15.0083 24.3227 15.1523C24.4667 15.2843 24.5387 15.4523 24.5387 15.6563V26.4203ZM37.8003 24.3323C37.8003 24.8003 37.6503 25.2203 37.3503 25.5923C37.0623 25.9523 36.6903 26.2583 36.2343 26.5103C35.7783 26.7623 35.2683 26.9543 34.7043 27.0863C34.1523 27.2183 33.6123 27.2843 33.0843 27.2843C32.2323 27.2843 31.4283 27.1343 30.6723 26.8343C29.9283 26.5343 29.2743 26.1143 28.7103 25.5743C28.1583 25.0223 27.7203 24.3683 27.3963 23.6123C27.0723 22.8443 26.9103 21.9923 26.9103 21.0563C26.9103 20.1203 27.0723 19.2743 27.3963 18.5183C27.7203 17.7503 28.1583 17.0963 28.7103 16.5563C29.2743 16.0163 29.9283 15.5963 30.6723 15.2963C31.4283 14.9963 32.2323 14.8463 33.0843 14.8463C33.9843 14.8463 34.7763 15.0023 35.4603 15.3143C36.1443 15.6143 36.7263 16.0043 37.2063 16.4843C37.2783 16.5443 37.3263 16.6223 37.3503 16.7183C37.3863 16.8023 37.4043 16.8923 37.4043 16.9883C37.4043 17.1923 37.3383 17.3603 37.2063 17.4923C37.0863 17.6243 36.9243 17.6903 36.7203 17.6903C36.5403 17.6903 36.3783 17.6183 36.2343 17.4743C35.8503 17.0663 35.3763 16.7483 34.8123 16.5203C34.2603 16.2923 33.6843 16.1783 33.0843 16.1783C32.4243 16.1783 31.8123 16.2983 31.2483 16.5383C30.6843 16.7783 30.1923 17.1143 29.7723 17.5463C29.3643 17.9783 29.0403 18.4943 28.8003 19.0943C28.5723 19.6823 28.4583 20.3363 28.4583 21.0563C28.4583 21.7643 28.5723 22.4183 28.8003 23.0183C29.0403 23.6183 29.3643 24.1343 29.7723 24.5663C30.1923 24.9983 30.6843 25.3403 31.2483 25.5923C31.8123 25.8323 32.4243 25.9523 33.0843 25.9523C33.4443 25.9523 33.7863 25.9163 34.1103 25.8443C34.4343 25.7603 34.7343 25.6583 35.0103 25.5383C35.2863 25.4063 35.5323 25.2623 35.7483 25.1063C35.9763 24.9503 36.1623 24.8003 36.3063 24.6563V22.2083H32.7243C32.5443 22.2083 32.3883 22.1483 32.2563 22.0283C32.1363 21.8963 32.0763 21.7283 32.0763 21.5243C32.0763 21.3443 32.1363 21.1943 32.2563 21.0743C32.3883 20.9423 32.5443 20.8763 32.7243 20.8763H36.7203C37.0203 20.8763 37.2723 20.9843 37.4763 21.2003C37.6923 21.4043 37.8003 21.6563 37.8003 21.9563V24.3323ZM50.2814 26.4203C50.2814 26.6243 50.2094 26.7983 50.0654 26.9423C49.9214 27.0863 49.7414 27.1583 49.5254 27.1583C49.3214 27.1583 49.1474 27.0863 49.0034 26.9423C48.8594 26.7983 48.7874 26.6243 48.7874 26.4203V21.5423H41.7674V26.4203C41.7674 26.6243 41.6954 26.7983 41.5514 26.9423C41.4074 27.0863 41.2274 27.1583 41.0114 27.1583C40.8074 27.1583 40.6334 27.0863 40.4894 26.9423C40.3454 26.7983 40.2734 26.6243 40.2734 26.4203V15.6563C40.2734 15.4523 40.3454 15.2843 40.4894 15.1523C40.6334 15.0083 40.8194 14.9363 41.0474 14.9363C41.2514 14.9363 41.4194 15.0083 41.5514 15.1523C41.6954 15.2843 41.7674 15.4523 41.7674 15.6563V20.2103H48.7874V15.6563C48.7874 15.4523 48.8594 15.2843 49.0034 15.1523C49.1474 15.0083 49.3334 14.9363 49.5614 14.9363C49.7654 14.9363 49.9334 15.0083 50.0654 15.1523C50.2094 15.2843 50.2814 15.4523 50.2814 15.6563V26.4203ZM61.5208 15.7283C61.5208 15.9083 61.4548 16.0643 61.3228 16.1963C61.2028 16.3163 61.0528 16.3763 60.8728 16.3763H57.5968V26.4203C57.5968 26.6243 57.5248 26.7983 57.3808 26.9423C57.2368 27.0863 57.0568 27.1583 56.8408 27.1583C56.6368 27.1583 56.4628 27.0863 56.3188 26.9423C56.1748 26.7983 56.1028 26.6243 56.1028 26.4203V16.3763H52.8448C52.6648 16.3763 52.5088 16.3163 52.3768 16.1963C52.2568 16.0643 52.1968 15.8963 52.1968 15.6923C52.1968 15.5123 52.2568 15.3623 52.3768 15.2423C52.5088 15.1103 52.6648 15.0443 52.8448 15.0443H60.8728C61.0528 15.0443 61.2028 15.1103 61.3228 15.2423C61.4548 15.3623 61.5208 15.5243 61.5208 15.7283ZM77.0751 23.8103C77.0751 24.2903 76.9971 24.7283 76.8411 25.1243C76.6851 25.5203 76.4571 25.8623 76.1571 26.1503C75.8571 26.4383 75.4911 26.6603 75.0591 26.8163C74.6391 26.9723 74.1531 27.0503 73.6011 27.0503H69.2091C68.9091 27.0503 68.6511 26.9483 68.4351 26.7443C68.2311 26.5283 68.1291 26.2703 68.1291 25.9703V16.1243C68.1291 15.8243 68.2311 15.5723 68.4351 15.3683C68.6511 15.1523 68.9091 15.0443 69.2091 15.0443H73.4751C73.9911 15.0443 74.4591 15.1223 74.8791 15.2783C75.2991 15.4223 75.6531 15.6323 75.9411 15.9083C76.2291 16.1723 76.4511 16.4963 76.6071 16.8803C76.7631 17.2523 76.8411 17.6603 76.8411 18.1043C76.8411 18.4883 76.7811 18.8363 76.6611 19.1483C76.5531 19.4603 76.3971 19.7363 76.1931 19.9763C76.0011 20.2043 75.7791 20.3963 75.5271 20.5523C75.2751 20.6963 75.0111 20.7983 74.7351 20.8583C75.0591 20.9063 75.3591 21.0203 75.6351 21.2003C75.9231 21.3803 76.1691 21.6023 76.3731 21.8663C76.5891 22.1303 76.7571 22.4303 76.8771 22.7663C77.0091 23.1023 77.0751 23.4503 77.0751 23.8103ZM75.2931 18.3203C75.2931 17.7803 75.1191 17.3243 74.7711 16.9523C74.4231 16.5683 73.9071 16.3763 73.2231 16.3763H69.6231V20.2463H73.2231C73.9071 20.2463 74.4231 20.0663 74.7711 19.7063C75.1191 19.3343 75.2931 18.8723 75.2931 18.3203ZM75.5271 23.6483C75.5271 23.3723 75.4791 23.1083 75.3831 22.8563C75.2871 22.6043 75.1431 22.3883 74.9511 22.2083C74.7711 22.0163 74.5431 21.8663 74.2671 21.7583C73.9911 21.6383 73.6671 21.5783 73.2951 21.5783H69.6231V25.7183H73.2951C74.0031 25.7183 74.5491 25.5383 74.9331 25.1783C75.3291 24.8063 75.5271 24.2963 75.5271 23.6483ZM86.6764 26.3663C86.6764 26.5703 86.6104 26.7383 86.4784 26.8703C86.3584 26.9903 86.2084 27.0503 86.0284 27.0503H80.5744C80.2744 27.0503 80.0164 26.9483 79.8004 26.7443C79.5964 26.5283 79.4944 26.2703 79.4944 25.9703V15.6563C79.4944 15.4523 79.5664 15.2843 79.7104 15.1523C79.8544 15.0083 80.0404 14.9363 80.2684 14.9363C80.4724 14.9363 80.6404 15.0083 80.7724 15.1523C80.9164 15.2843 80.9884 15.4523 80.9884 15.6563V25.7183H86.0284C86.2084 25.7183 86.3584 25.7843 86.4784 25.9163C86.6104 26.0363 86.6764 26.1863 86.6764 26.3663ZM98.015 22.3703C98.015 23.1143 97.913 23.7923 97.709 24.4043C97.505 25.0043 97.199 25.5203 96.791 25.9523C96.383 26.3723 95.873 26.6963 95.261 26.9243C94.649 27.1523 93.935 27.2663 93.119 27.2663C92.303 27.2663 91.589 27.1523 90.977 26.9243C90.365 26.6843 89.855 26.3543 89.447 25.9343C89.039 25.5143 88.733 25.0043 88.529 24.4043C88.325 23.8043 88.223 23.1323 88.223 22.3883V15.6563C88.223 15.4523 88.295 15.2843 88.439 15.1523C88.583 15.0083 88.769 14.9363 88.997 14.9363C89.201 14.9363 89.369 15.0083 89.501 15.1523C89.645 15.2843 89.717 15.4523 89.717 15.6563V22.3523C89.717 23.4563 90.005 24.3323 90.581 24.9803C91.157 25.6163 92.003 25.9343 93.119 25.9343C94.235 25.9343 95.081 25.6163 95.657 24.9803C96.233 24.3323 96.521 23.4563 96.521 22.3523V15.6563C96.521 15.4523 96.593 15.2843 96.737 15.1523C96.881 15.0083 97.067 14.9363 97.295 14.9363C97.499 14.9363 97.667 15.0083 97.799 15.1523C97.943 15.2843 98.015 15.4523 98.015 15.6563V22.3703ZM108.845 26.3663C108.845 26.5703 108.779 26.7383 108.647 26.8703C108.527 26.9903 108.377 27.0503 108.197 27.0503H101.951C101.651 27.0503 101.393 26.9483 101.177 26.7443C100.973 26.5283 100.871 26.2703 100.871 25.9703V16.1243C100.871 15.8243 100.973 15.5723 101.177 15.3683C101.393 15.1523 101.651 15.0443 101.951 15.0443H108.197C108.377 15.0443 108.527 15.1103 108.647 15.2423C108.779 15.3623 108.845 15.5243 108.845 15.7283C108.845 15.9083 108.779 16.0643 108.647 16.1963C108.527 16.3163 108.377 16.3763 108.197 16.3763H102.365V20.2463H108.071C108.251 20.2463 108.401 20.3123 108.521 20.4443C108.653 20.5643 108.719 20.7263 108.719 20.9303C108.719 21.1103 108.653 21.2663 108.521 21.3983C108.401 21.5183 108.251 21.5783 108.071 21.5783H102.365V25.7183H108.197C108.377 25.7183 108.527 25.7843 108.647 25.9163C108.779 26.0363 108.845 26.1863 108.845 26.3663Z" fill="#7C9EC3"/>
<path d="M17.1926 52.2183C14.7986 52.2183 13.5526 50.7623 13.5526 48.4663V42.7123H14.3646V48.4523C14.3646 50.3423 15.3586 51.4903 17.1926 51.4903C19.0266 51.4903 20.0206 50.3423 20.0206 48.4523V42.7123H20.8326V48.4663C20.8326 50.7763 19.6006 52.2183 17.1926 52.2183ZM28.4143 52.0503H27.6863V47.4723C27.6863 46.1703 27.0283 45.7783 26.0483 45.7783C25.1803 45.7783 24.2843 46.3243 23.8503 46.9403V52.0503H23.1223V45.2883H23.8503V46.3103C24.3403 45.7223 25.3063 45.1203 26.2863 45.1203C27.6583 45.1203 28.4143 45.7923 28.4143 47.3183V52.0503ZM32.6988 52.2183C31.6068 52.2183 30.7668 51.8963 30.0948 51.1403L30.5288 50.6083C30.9628 51.1543 31.7608 51.6023 32.7128 51.6023C33.8468 51.6023 34.5188 51.0143 34.5188 50.2303C34.5188 48.3823 30.2488 49.4323 30.2488 46.9963C30.2488 45.9603 31.1308 45.1203 32.6568 45.1203C33.8188 45.1203 34.5888 45.5683 35.0788 46.1143L34.6728 46.6323C34.2808 46.1003 33.5528 45.7363 32.6568 45.7363C31.6068 45.7363 30.9768 46.2683 30.9768 46.9683C30.9768 48.6623 35.2328 47.6263 35.2328 50.2303C35.2328 51.3223 34.3928 52.2183 32.6988 52.2183ZM38.5786 52.2183C37.6826 52.2183 37.2486 51.6723 37.2486 50.7483V45.9323H36.1286V45.2883H37.2486V43.4403H37.9906V45.2883H39.3626V45.9323H37.9906V50.6363C37.9906 51.1823 38.2146 51.5603 38.6906 51.5603C39.0126 51.5603 39.2926 51.4063 39.4466 51.2383L39.7266 51.7983C39.4606 52.0503 39.1386 52.2183 38.5786 52.2183ZM41.3281 44.2243C41.0341 44.2243 40.7681 43.9723 40.7681 43.6643C40.7681 43.3563 41.0341 43.1183 41.3281 43.1183C41.6361 43.1183 41.8881 43.3563 41.8881 43.6643C41.8881 43.9723 41.6361 44.2243 41.3281 44.2243ZM41.6921 52.0503H40.9641V45.2883H41.6921V52.0503ZM45.4282 52.2183C44.5322 52.2183 44.0982 51.6723 44.0982 50.7483V45.9323H42.9782V45.2883H44.0982V43.4403H44.8402V45.2883H46.2122V45.9323H44.8402V50.6363C44.8402 51.1823 45.0642 51.5603 45.5402 51.5603C45.8622 51.5603 46.1422 51.4063 46.2962 51.2383L46.5762 51.7983C46.3102 52.0503 45.9882 52.2183 45.4282 52.2183ZM50.7117 52.2183C48.7237 52.2183 47.4357 50.6363 47.4357 48.6623C47.4357 46.6883 48.7237 45.1203 50.7117 45.1203C51.8877 45.1203 52.5597 45.5823 53.1057 46.2683L52.6017 46.7163C52.1117 46.0443 51.4957 45.7783 50.7537 45.7783C49.1717 45.7783 48.2057 47.0383 48.2057 48.6623C48.2057 50.2863 49.1717 51.5603 50.7537 51.5603C51.4957 51.5603 52.1117 51.2803 52.6017 50.6083L53.1057 51.0563C52.5597 51.7563 51.8877 52.2183 50.7117 52.2183ZM60.0237 52.0503H59.2957V47.4443C59.2957 46.1423 58.6377 45.7783 57.6577 45.7783C56.7897 45.7783 55.8937 46.3243 55.4597 46.9403V52.0503H54.7317V42.7123H55.4597V46.3103C55.9497 45.7223 56.9157 45.1203 57.8957 45.1203C59.2677 45.1203 60.0237 45.7643 60.0237 47.2903V52.0503ZM65.2882 52.2183C63.3142 52.2183 61.9142 50.7483 61.9142 48.6623C61.9142 46.7023 63.2862 45.1203 65.1622 45.1203C67.2202 45.1203 68.3542 46.7443 68.3542 48.7043V48.9003H62.6982C62.7682 50.3703 63.7482 51.5883 65.3442 51.5883C66.1982 51.5883 66.9822 51.2663 67.5562 50.6503L67.9342 51.1263C67.2622 51.8263 66.4082 52.2183 65.2882 52.2183ZM67.6122 48.3263C67.5982 47.1783 66.8422 45.7503 65.1482 45.7503C63.5522 45.7503 62.7542 47.1503 62.6982 48.3263H67.6122ZM75.9616 52.0503H75.2196V50.9723C74.7436 51.6723 73.8756 52.2183 72.8676 52.2183C71.0756 52.2183 69.8576 50.8463 69.8576 48.6763C69.8576 46.5343 71.0756 45.1203 72.8676 45.1203C73.8336 45.1203 74.6876 45.6103 75.2196 46.3803V42.7123H75.9616V52.0503ZM72.9936 51.5603C73.9456 51.5603 74.8276 51.0003 75.2196 50.3563V47.0103C74.8276 46.3523 73.9456 45.7783 72.9936 45.7783C71.4956 45.7783 70.6276 47.0383 70.6276 48.6763C70.6276 50.3143 71.4956 51.5603 72.9936 51.5603ZM82.4867 52.3303H81.8847V42.4323H82.4867V52.3303ZM90.8838 52.2183C89.3578 52.2183 88.2518 51.5043 87.7058 50.6643L88.2518 50.1883C88.7698 50.9303 89.6798 51.4903 90.8698 51.4903C92.3118 51.4903 93.2218 50.7343 93.2218 49.5023C93.2218 48.1583 92.1158 47.5983 90.7158 47.5983C90.3378 47.5983 89.9878 47.6123 89.8478 47.6263V46.8703C89.9878 46.8843 90.3378 46.8843 90.7158 46.8843C91.9618 46.8843 93.0818 46.3523 93.0818 45.1063C93.0818 43.9443 92.0458 43.3003 90.8418 43.3003C89.7778 43.3003 89.0218 43.7203 88.3358 44.4903L87.8318 43.9863C88.4898 43.1883 89.5258 42.5723 90.8838 42.5723C92.5078 42.5723 93.8938 43.4543 93.8938 45.0363C93.8938 46.4643 92.6898 47.0803 91.8918 47.2203C92.7038 47.3043 94.0338 48.0043 94.0338 49.5443C94.0338 51.0843 92.8718 52.2183 90.8838 52.2183ZM100.456 52.0503H99.6581V42.7123H103.158C104.95 42.7123 105.972 43.9723 105.972 45.4423C105.972 46.9123 104.936 48.1723 103.158 48.1723H100.456V52.0503ZM103.074 47.4443C104.32 47.4443 105.132 46.6043 105.132 45.4423C105.132 44.2663 104.32 43.4403 103.074 43.4403H100.456V47.4443H103.074ZM107.992 44.2243C107.698 44.2243 107.432 43.9723 107.432 43.6643C107.432 43.3563 107.698 43.1183 107.992 43.1183C108.3 43.1183 108.552 43.3563 108.552 43.6643C108.552 43.9723 108.3 44.2243 107.992 44.2243ZM108.356 52.0503H107.628V45.2883H108.356V52.0503ZM113.618 52.2183C111.644 52.2183 110.244 50.7483 110.244 48.6623C110.244 46.7023 111.616 45.1203 113.492 45.1203C115.55 45.1203 116.684 46.7443 116.684 48.7043V48.9003H111.028C111.098 50.3703 112.078 51.5883 113.674 51.5883C114.528 51.5883 115.312 51.2663 115.886 50.6503L116.264 51.1263C115.592 51.8263 114.738 52.2183 113.618 52.2183ZM115.942 48.3263C115.928 47.1783 115.172 45.7503 113.478 45.7503C111.882 45.7503 111.084 47.1503 111.028 48.3263H115.942ZM121.464 52.2183C119.476 52.2183 118.188 50.6363 118.188 48.6623C118.188 46.6883 119.476 45.1203 121.464 45.1203C122.64 45.1203 123.312 45.5823 123.858 46.2683L123.354 46.7163C122.864 46.0443 122.248 45.7783 121.506 45.7783C119.924 45.7783 118.958 47.0383 118.958 48.6623C118.958 50.2863 119.924 51.5603 121.506 51.5603C122.248 51.5603 122.864 51.2803 123.354 50.6083L123.858 51.0563C123.312 51.7563 122.64 52.2183 121.464 52.2183ZM128.48 52.2183C126.506 52.2183 125.106 50.7483 125.106 48.6623C125.106 46.7023 126.478 45.1203 128.354 45.1203C130.412 45.1203 131.546 46.7443 131.546 48.7043V48.9003H125.89C125.96 50.3703 126.94 51.5883 128.536 51.5883C129.39 51.5883 130.174 51.2663 130.748 50.6503L131.126 51.1263C130.454 51.8263 129.6 52.2183 128.48 52.2183ZM130.804 48.3263C130.79 47.1783 130.034 45.7503 128.34 45.7503C126.744 45.7503 125.946 47.1503 125.89 48.3263H130.804ZM137.876 52.0503H137.078V42.7123H140.578C142.37 42.7123 143.392 43.9723 143.392 45.4423C143.392 46.9123 142.356 48.1723 140.578 48.1723H137.876V52.0503ZM140.494 47.4443C141.74 47.4443 142.552 46.6043 142.552 45.4423C142.552 44.2663 141.74 43.4403 140.494 43.4403H137.876V47.4443H140.494ZM145.776 52.0503H145.048V45.2883H145.776V46.4503C146.35 45.6943 147.12 45.1483 148.058 45.1483V45.9463C147.932 45.9183 147.834 45.9183 147.694 45.9183C147.008 45.9183 146.084 46.5343 145.776 47.1223V52.0503ZM149.855 44.2243C149.561 44.2243 149.295 43.9723 149.295 43.6643C149.295 43.3563 149.561 43.1183 149.855 43.1183C150.163 43.1183 150.415 43.3563 150.415 43.6643C150.415 43.9723 150.163 44.2243 149.855 44.2243ZM150.219 52.0503H149.491V45.2883H150.219V52.0503ZM157.778 52.0503H157.05V47.4723C157.05 46.1703 156.392 45.7783 155.412 45.7783C154.544 45.7783 153.648 46.3243 153.214 46.9403V52.0503H152.486V45.2883H153.214V46.3103C153.704 45.7223 154.67 45.1203 155.65 45.1203C157.022 45.1203 157.778 45.7923 157.778 47.3183V52.0503ZM161.516 52.2183C160.62 52.2183 160.186 51.6723 160.186 50.7483V45.9323H159.066V45.2883H160.186V43.4403H160.928V45.2883H162.3V45.9323H160.928V50.6363C160.928 51.1823 161.152 51.5603 161.628 51.5603C161.95 51.5603 162.23 51.4063 162.384 51.2383L162.664 51.7983C162.398 52.0503 162.076 52.2183 161.516 52.2183ZM166.898 52.2183C164.924 52.2183 163.524 50.7483 163.524 48.6623C163.524 46.7023 164.896 45.1203 166.772 45.1203C168.83 45.1203 169.964 46.7443 169.964 48.7043V48.9003H164.308C164.378 50.3703 165.358 51.5883 166.954 51.5883C167.808 51.5883 168.592 51.2663 169.166 50.6503L169.544 51.1263C168.872 51.8263 168.018 52.2183 166.898 52.2183ZM169.222 48.3263C169.208 47.1783 168.452 45.7503 166.758 45.7503C165.162 45.7503 164.364 47.1503 164.308 48.3263H169.222ZM177.571 52.0503H176.829V50.9723C176.353 51.6723 175.485 52.2183 174.477 52.2183C172.685 52.2183 171.467 50.8463 171.467 48.6763C171.467 46.5343 172.685 45.1203 174.477 45.1203C175.443 45.1203 176.297 45.6103 176.829 46.3803V42.7123H177.571V52.0503ZM174.603 51.5603C175.555 51.5603 176.437 51.0003 176.829 50.3563V47.0103C176.437 46.3523 175.555 45.7783 174.603 45.7783C173.105 45.7783 172.237 47.0383 172.237 48.6763C172.237 50.3143 173.105 51.5603 174.603 51.5603ZM18.6906 72.0503H13.3566V62.7123H14.1686V71.3223H18.6906V72.0503ZM25.0995 72.0503H24.3715V71.2523C23.7695 71.9103 23.0135 72.2183 22.0755 72.2183C20.9135 72.2183 19.7095 71.4203 19.7095 69.9643C19.7095 68.4943 20.8995 67.7243 22.0755 67.7243C23.0135 67.7243 23.7835 68.0323 24.3715 68.6903V67.3183C24.3715 66.3103 23.5595 65.7643 22.5655 65.7643C21.7115 65.7643 21.0535 66.0583 20.4375 66.7583L20.0315 66.2543C20.7315 65.4983 21.5155 65.1203 22.6355 65.1203C24.0075 65.1203 25.0995 65.7783 25.0995 67.2903V72.0503ZM22.3275 71.6443C23.1395 71.6443 23.8955 71.3363 24.3715 70.7203V69.2363C23.8955 68.6063 23.1395 68.2983 22.3275 68.2983C21.2215 68.2983 20.4795 69.0123 20.4795 69.9783C20.4795 70.9303 21.2215 71.6443 22.3275 71.6443ZM33.8702 72.0503H33.1702L31.2802 66.2683L29.3762 72.0503H28.6762L26.4782 65.2883H27.2622L29.0542 71.0283L30.9582 65.2883H31.5882L33.4922 71.0283L35.2842 65.2883H36.0682L33.8702 72.0503ZM42.7287 72.0503H42.0007V67.4723C42.0007 66.1703 41.3427 65.7783 40.3627 65.7783C39.4947 65.7783 38.5987 66.3243 38.1647 66.9403V72.0503H37.4367V65.2883H38.1647V66.3103C38.6547 65.7223 39.6207 65.1203 40.6007 65.1203C41.9727 65.1203 42.7287 65.7923 42.7287 67.3183V72.0503ZM49.2503 72.3303H48.6483V62.4323H49.2503V72.3303ZM59.3695 72.2183C56.6255 72.2183 54.8335 70.1183 54.8335 67.3883C54.8335 64.6583 56.6255 62.5583 59.3695 62.5583C62.0995 62.5583 63.9055 64.6583 63.9055 67.3883C63.9055 70.1183 62.0995 72.2183 59.3695 72.2183ZM59.3695 71.4903C61.6095 71.4903 63.0655 69.7403 63.0655 67.3883C63.0655 65.0223 61.6095 63.2863 59.3695 63.2863C57.1155 63.2863 55.6735 65.0223 55.6735 67.3883C55.6735 69.7403 57.1155 71.4903 59.3695 71.4903ZM68.6567 72.0503H67.8447V63.4403H64.7927V62.7123H71.7087V63.4403H68.6567V72.0503ZM78.5051 72.0503H73.1711V62.7123H73.9831V71.3223H78.5051V72.0503ZM82.7663 68.9983H79.4063V68.3263H82.7663V68.9983ZM90.1276 72.0503H83.9676V71.3923C87.1456 68.8303 89.2736 67.0103 89.2736 65.2043C89.2736 63.8603 88.1676 63.3003 87.1456 63.3003C85.9836 63.3003 85.0876 63.8043 84.5836 64.5183L84.0376 64.0143C84.6956 63.1183 85.8296 62.5723 87.1456 62.5723C88.5176 62.5723 90.0856 63.3563 90.0856 65.2043C90.0856 67.2623 87.9156 69.1383 85.2136 71.3223H90.1276V72.0503ZM95.518 72.2183C93.964 72.2183 93.012 71.6163 92.368 70.6923L92.9 70.1603C93.502 71.0143 94.314 71.4903 95.518 71.4903C96.876 71.4903 97.856 70.5103 97.856 69.2363C97.856 67.8223 96.876 66.9543 95.532 66.9543C94.678 66.9543 93.95 67.2343 93.264 67.8643L92.662 67.6123V62.7123H98.052V63.4403H93.46V67.0943C93.922 66.6463 94.72 66.2263 95.686 66.2263C97.254 66.2263 98.668 67.2623 98.668 69.2083C98.668 71.0703 97.24 72.2183 95.518 72.2183ZM103.26 68.9983H99.9005V68.3263H103.26V68.9983ZM107.304 72.2183C105.778 72.2183 104.672 71.5043 104.126 70.6643L104.672 70.1883C105.19 70.9303 106.1 71.4903 107.29 71.4903C108.732 71.4903 109.642 70.7343 109.642 69.5023C109.642 68.1583 108.536 67.5983 107.136 67.5983C106.758 67.5983 106.408 67.6123 106.268 67.6263V66.8703C106.408 66.8843 106.758 66.8843 107.136 66.8843C108.382 66.8843 109.502 66.3523 109.502 65.1063C109.502 63.9443 108.466 63.3003 107.262 63.3003C106.198 63.3003 105.442 63.7203 104.756 64.4903L104.252 63.9863C104.91 63.1883 105.946 62.5723 107.304 62.5723C108.928 62.5723 110.314 63.4543 110.314 65.0363C110.314 66.4643 109.11 67.0803 108.312 67.2203C109.124 67.3043 110.454 68.0043 110.454 69.5443C110.454 71.0843 109.292 72.2183 107.304 72.2183ZM118.237 72.0503H112.077V71.3923C115.255 68.8303 117.383 67.0103 117.383 65.2043C117.383 63.8603 116.277 63.3003 115.255 63.3003C114.093 63.3003 113.197 63.8043 112.693 64.5183L112.147 64.0143C112.805 63.1183 113.939 62.5723 115.255 62.5723C116.627 62.5723 118.195 63.3563 118.195 65.2043C118.195 67.2623 116.025 69.1383 113.323 71.3223H118.237V72.0503ZM122.031 72.0503H121.149L125.069 63.4403H119.903V62.7123H126.021V63.2723L122.031 72.0503Z" fill="black"/>
<path d="M16.06 98.168C14.52 98.168 13.358 97.538 12.644 96.684L13.162 96.082C13.764 96.768 14.744 97.44 16.088 97.44C17.992 97.44 18.538 96.376 18.538 95.578C18.538 92.834 12.938 94.262 12.938 91C12.938 89.474 14.31 88.508 16.004 88.508C17.39 88.508 18.454 88.998 19.168 89.824L18.636 90.412C17.964 89.6 17.012 89.236 15.962 89.236C14.716 89.236 13.778 89.95 13.778 90.958C13.778 93.352 19.378 92.036 19.378 95.522C19.378 96.726 18.58 98.168 16.06 98.168ZM26.5608 98H25.8328V93.394C25.8328 92.092 25.1748 91.728 24.1948 91.728C23.3268 91.728 22.4308 92.274 21.9968 92.89V98H21.2688V88.662H21.9968V92.26C22.4868 91.672 23.4528 91.07 24.4328 91.07C25.8048 91.07 26.5608 91.714 26.5608 93.24V98ZM31.6853 98.168C29.7113 98.168 28.4513 96.586 28.4513 94.612C28.4513 92.638 29.7113 91.07 31.6853 91.07C33.6873 91.07 34.9473 92.638 34.9473 94.612C34.9473 96.586 33.6873 98.168 31.6853 98.168ZM31.6853 97.51C33.2813 97.51 34.1633 96.124 34.1633 94.612C34.1633 93.114 33.2813 91.728 31.6853 91.728C30.1173 91.728 29.2213 93.114 29.2213 94.612C29.2213 96.124 30.1173 97.51 31.6853 97.51ZM39.9074 98.168C38.9554 98.168 38.1014 97.678 37.5554 96.908V100.576H36.8274V91.238H37.5554V92.302C38.0314 91.616 38.8994 91.07 39.9074 91.07C41.7134 91.07 42.9314 92.442 42.9314 94.612C42.9314 96.768 41.7134 98.168 39.9074 98.168ZM39.7814 97.51C41.2934 97.51 42.1474 96.25 42.1474 94.612C42.1474 92.974 41.2934 91.728 39.7814 91.728C38.8434 91.728 37.9474 92.288 37.5554 92.932V96.278C37.9474 96.922 38.8434 97.51 39.7814 97.51ZM53.5598 98H48.2258V88.662H49.0378V97.272H53.5598V98ZM55.539 90.174C55.245 90.174 54.979 89.922 54.979 89.614C54.979 89.306 55.245 89.068 55.539 89.068C55.847 89.068 56.099 89.306 56.099 89.614C56.099 89.922 55.847 90.174 55.539 90.174ZM55.903 98H55.175V91.238H55.903V98ZM60.8572 100.744C59.7092 100.744 58.9812 100.534 58.1832 99.722L58.6032 99.134C59.1912 99.834 59.8352 100.086 60.8572 100.086C62.0752 100.086 63.1532 99.47 63.1532 97.944V96.866C62.6772 97.566 61.8092 98.14 60.8012 98.14C59.0092 98.14 57.7912 96.782 57.7912 94.612C57.7912 92.47 59.0092 91.07 60.8012 91.07C61.7672 91.07 62.6072 91.56 63.1532 92.33V91.238H63.8952V97.944C63.8952 100.002 62.4952 100.744 60.8572 100.744ZM60.9272 97.482C61.8652 97.482 62.7612 96.908 63.1532 96.25V92.96C62.7612 92.302 61.8652 91.728 60.9272 91.728C59.4292 91.728 58.5612 92.974 58.5612 94.612C58.5612 96.25 59.4292 97.482 60.9272 97.482ZM71.4455 98H70.7175V93.394C70.7175 92.092 70.0595 91.728 69.0795 91.728C68.2115 91.728 67.3155 92.274 66.8815 92.89V98H66.1535V88.662H66.8815V92.26C67.3715 91.672 68.3375 91.07 69.3175 91.07C70.6895 91.07 71.4455 91.714 71.4455 93.24V98ZM75.1841 98.168C74.2881 98.168 73.8541 97.622 73.8541 96.698V91.882H72.7341V91.238H73.8541V89.39H74.5961V91.238H75.9681V91.882H74.5961V96.586C74.5961 97.132 74.8201 97.51 75.2961 97.51C75.6181 97.51 75.8981 97.356 76.0521 97.188L76.3321 97.748C76.0661 98 75.7441 98.168 75.1841 98.168ZM85.1406 98H81.2206V88.662H85.0566C86.6246 88.662 87.6326 89.572 87.6326 91.042C87.6326 92.218 86.8346 93.016 85.9946 93.184C86.9886 93.338 87.8146 94.374 87.8146 95.48C87.8146 97.034 86.8066 98 85.1406 98ZM84.9586 92.848C86.1626 92.848 86.7926 92.092 86.7926 91.126C86.7926 90.174 86.1626 89.39 84.9586 89.39H82.0186V92.848H84.9586ZM85.0146 97.272C86.2466 97.272 86.9746 96.558 86.9746 95.424C86.9746 94.472 86.3166 93.576 85.0146 93.576H82.0186V97.272H85.0146ZM90.5339 98H89.8059V88.662H90.5339V98ZM98.092 98H97.364V97.006C96.818 97.622 95.908 98.168 94.928 98.168C93.556 98.168 92.8 97.524 92.8 95.998V91.238H93.528V95.83C93.528 97.146 94.186 97.51 95.166 97.51C96.034 97.51 96.916 96.992 97.364 96.39V91.238H98.092V98ZM103.357 98.168C101.383 98.168 99.9826 96.698 99.9826 94.612C99.9826 92.652 101.355 91.07 103.231 91.07C105.289 91.07 106.423 92.694 106.423 94.654V94.85H100.767C100.837 96.32 101.817 97.538 103.413 97.538C104.267 97.538 105.051 97.216 105.625 96.6L106.003 97.076C105.331 97.776 104.477 98.168 103.357 98.168ZM105.681 94.276C105.667 93.128 104.911 91.7 103.217 91.7C101.621 91.7 100.823 93.1 100.767 94.276H105.681Z" fill="black"/>
<path d="M12 99.862H36.5481V100.142H12V99.862ZM37.8347 99.862H58.0481V100.142H37.8347V99.862ZM63.5378 99.862H107.165V100.142H63.5378V99.862Z" fill="black"/>
</svg>
