<svg width="29" height="24" viewBox="0 0 29 24" fill="none" xmlns="http://www.w3.org/2000/svg">
<g clip-path="url(#clip0_320_274)">
<g clip-path="url(#clip1_320_274)">
<g clip-path="url(#clip2_320_274)">
<path d="M16.6398 13.6259L25.0137 23.3599H23.0294L15.7584 14.908L9.95101 23.3599H3.25293L12.0348 10.5792L3.25293 0.371672H5.23738L12.9158 9.2971L19.0487 0.371672H25.7468L16.6394 13.6259H16.6398ZM13.9219 10.4666L13.0321 11.7393L5.9524 21.866H9.0004L14.7138 13.6934L15.6036 12.4207L23.0303 1.7976H19.9823L13.9219 10.4661V10.4666Z" fill="white"/>
</g>
</g>
</g>
<defs>
<clipPath id="clip0_320_274">
<rect width="29" height="23" fill="white" transform="matrix(1 0 0 -1 0 23.3599)"/>
</clipPath>
<clipPath id="clip1_320_274">
<rect width="29" height="23" fill="white" transform="matrix(1 0 0 -1 0 23.3599)"/>
</clipPath>
<clipPath id="clip2_320_274">
<rect width="22.4939" height="23" fill="white" transform="matrix(1 0 0 -1 3.25293 23.3599)"/>
</clipPath>
</defs>
</svg>
