<svg width="41" height="45" viewBox="0 0 41 45" fill="none" xmlns="http://www.w3.org/2000/svg">
<g filter="url(#filter0_d_320_203)">
<rect x="7.49121" y="6.83545" width="26.6528" height="26.6528" rx="13.3264" fill="white" fill-opacity="0.9" shape-rendering="crispEdges"/>
<g clip-path="url(#clip0_320_203)">
<g clip-path="url(#clip1_320_203)">
<path fill-rule="evenodd" clip-rule="evenodd" d="M21.7059 13.8796C21.7059 13.389 21.3081 12.9912 20.8174 12.9912C20.3268 12.9912 19.929 13.389 19.929 13.8796V19.2103H14.5984C14.1077 19.2103 13.71 19.6081 13.71 20.0987C13.71 20.5894 14.1077 20.9871 14.5984 20.9871H19.929V26.3176C19.929 26.8083 20.3268 27.2061 20.8174 27.2061C21.3081 27.2061 21.7059 26.8083 21.7059 26.3176V20.9871H27.0363C27.527 20.9871 27.9248 20.5894 27.9248 20.0987C27.9248 19.6081 27.527 19.2103 27.0363 19.2103H21.7059V13.8796Z" fill="black"/>
</g>
</g>
</g>
<defs>
<filter id="filter0_d_320_203" x="0.828017" y="4.17017" width="39.9787" height="39.9792" filterUnits="userSpaceOnUse" color-interpolation-filters="sRGB">
<feFlood flood-opacity="0" result="BackgroundImageFix"/>
<feColorMatrix in="SourceAlpha" type="matrix" values="0 0 0 0 0 0 0 0 0 0 0 0 0 0 0 0 0 0 127 0" result="hardAlpha"/>
<feOffset dy="3.99792"/>
<feGaussianBlur stdDeviation="3.3316"/>
<feComposite in2="hardAlpha" operator="out"/>
<feColorMatrix type="matrix" values="0 0 0 0 0 0 0 0 0 0 0 0 0 0 0 0 0 0 0.3 0"/>
<feBlend mode="normal" in2="BackgroundImageFix" result="effect1_dropShadow_320_203"/>
<feBlend mode="normal" in="SourceGraphic" in2="effect1_dropShadow_320_203" result="shape"/>
</filter>
<clipPath id="clip0_320_203">
<rect width="15.9917" height="15.9917" fill="white" transform="translate(12.8223 12.1655)"/>
</clipPath>
<clipPath id="clip1_320_203">
<rect width="15.9917" height="15.9917" fill="white" transform="translate(12.8223 12.1655)"/>
</clipPath>
</defs>
</svg>
