<svg width="228" height="113" viewBox="0 0 228 113" fill="none" xmlns="http://www.w3.org/2000/svg">
<rect width="228" height="113" fill="#FAF3D9"/>
<path d="M23.8886 24.3323C23.8886 24.8003 23.7386 25.2203 23.4386 25.5923C23.1506 25.9523 22.7786 26.2583 22.3226 26.5103C21.8666 26.7623 21.3566 26.9543 20.7926 27.0863C20.2406 27.2183 19.7006 27.2843 19.1726 27.2843C18.3206 27.2843 17.5166 27.1343 16.7606 26.8343C16.0166 26.5343 15.3626 26.1143 14.7986 25.5743C14.2466 25.0223 13.8086 24.3683 13.4846 23.6123C13.1606 22.8443 12.9986 21.9923 12.9986 21.0563C12.9986 20.1203 13.1606 19.2743 13.4846 18.5183C13.8086 17.7503 14.2466 17.0963 14.7986 16.5563C15.3626 16.0163 16.0166 15.5963 16.7606 15.2963C17.5166 14.9963 18.3206 14.8463 19.1726 14.8463C20.0726 14.8463 20.8646 15.0023 21.5486 15.3143C22.2326 15.6143 22.8146 16.0043 23.2946 16.4843C23.3666 16.5443 23.4146 16.6223 23.4386 16.7183C23.4746 16.8023 23.4926 16.8923 23.4926 16.9883C23.4926 17.1923 23.4266 17.3603 23.2946 17.4923C23.1746 17.6243 23.0126 17.6903 22.8086 17.6903C22.6286 17.6903 22.4666 17.6183 22.3226 17.4743C21.9386 17.0663 21.4646 16.7483 20.9006 16.5203C20.3486 16.2923 19.7726 16.1783 19.1726 16.1783C18.5126 16.1783 17.9006 16.2983 17.3366 16.5383C16.7726 16.7783 16.2806 17.1143 15.8606 17.5463C15.4526 17.9783 15.1286 18.4943 14.8886 19.0943C14.6606 19.6823 14.5466 20.3363 14.5466 21.0563C14.5466 21.7643 14.6606 22.4183 14.8886 23.0183C15.1286 23.6183 15.4526 24.1343 15.8606 24.5663C16.2806 24.9983 16.7726 25.3403 17.3366 25.5923C17.9006 25.8323 18.5126 25.9523 19.1726 25.9523C19.5326 25.9523 19.8746 25.9163 20.1986 25.8443C20.5226 25.7603 20.8226 25.6583 21.0986 25.5383C21.3746 25.4063 21.6206 25.2623 21.8366 25.1063C22.0646 24.9503 22.2506 24.8003 22.3946 24.6563V22.2083H18.8126C18.6326 22.2083 18.4766 22.1483 18.3446 22.0283C18.2246 21.8963 18.1646 21.7283 18.1646 21.5243C18.1646 21.3443 18.2246 21.1943 18.3446 21.0743C18.4766 20.9423 18.6326 20.8763 18.8126 20.8763H22.8086C23.1086 20.8763 23.3606 20.9843 23.5646 21.2003C23.7806 21.4043 23.8886 21.6563 23.8886 21.9563V24.3323ZM37.7916 21.0563C37.7916 21.9443 37.6476 22.7663 37.3596 23.5223C37.0716 24.2783 36.6636 24.9383 36.1356 25.5023C35.6196 26.0543 34.9956 26.4863 34.2636 26.7983C33.5316 27.1103 32.7216 27.2663 31.8336 27.2663C30.9456 27.2663 30.1356 27.1103 29.4036 26.7983C28.6716 26.4863 28.0416 26.0543 27.5136 25.5023C26.9976 24.9383 26.5956 24.2783 26.3076 23.5223C26.0196 22.7663 25.8756 21.9443 25.8756 21.0563C25.8756 20.1683 26.0196 19.3463 26.3076 18.5903C26.5956 17.8343 26.9976 17.1803 27.5136 16.6283C28.0416 16.0643 28.6716 15.6263 29.4036 15.3143C30.1356 15.0023 30.9456 14.8463 31.8336 14.8463C32.7216 14.8463 33.5316 15.0023 34.2636 15.3143C34.9956 15.6263 35.6196 16.0643 36.1356 16.6283C36.6636 17.1803 37.0716 17.8343 37.3596 18.5903C37.6476 19.3463 37.7916 20.1683 37.7916 21.0563ZM36.2436 21.0563C36.2436 20.3603 36.1356 19.7123 35.9196 19.1123C35.7156 18.5123 35.4216 17.9963 35.0376 17.5643C34.6536 17.1323 34.1916 16.7963 33.6516 16.5563C33.1116 16.3043 32.5056 16.1783 31.8336 16.1783C31.1616 16.1783 30.5496 16.3043 29.9976 16.5563C29.4576 16.7963 28.9956 17.1323 28.6116 17.5643C28.2276 17.9963 27.9336 18.5123 27.7296 19.1123C27.5256 19.7123 27.4236 20.3603 27.4236 21.0563C27.4236 21.7523 27.5256 22.4003 27.7296 23.0003C27.9336 23.5883 28.2276 24.1043 28.6116 24.5483C28.9956 24.9803 29.4576 25.3223 29.9976 25.5743C30.5496 25.8143 31.1616 25.9343 31.8336 25.9343C32.5056 25.9343 33.1116 25.8143 33.6516 25.5743C34.1916 25.3223 34.6536 24.9803 35.0376 24.5483C35.4216 24.1043 35.7156 23.5883 35.9196 23.0003C36.1356 22.4003 36.2436 21.7523 36.2436 21.0563ZM47.3523 26.3663C47.3523 26.5703 47.2863 26.7383 47.1543 26.8703C47.0343 26.9903 46.8843 27.0503 46.7043 27.0503H41.2503C40.9503 27.0503 40.6923 26.9483 40.4763 26.7443C40.2723 26.5283 40.1703 26.2703 40.1703 25.9703V15.6563C40.1703 15.4523 40.2423 15.2843 40.3863 15.1523C40.5303 15.0083 40.7163 14.9363 40.9443 14.9363C41.1483 14.9363 41.3163 15.0083 41.4483 15.1523C41.5923 15.2843 41.6643 15.4523 41.6643 15.6563V25.7183H46.7043C46.8843 25.7183 47.0343 25.7843 47.1543 25.9163C47.2863 26.0363 47.3523 26.1863 47.3523 26.3663ZM59.651 21.0563C59.651 21.9083 59.501 22.7003 59.201 23.4323C58.913 24.1643 58.499 24.8003 57.959 25.3403C57.431 25.8683 56.789 26.2883 56.033 26.6003C55.277 26.9003 54.431 27.0503 53.495 27.0503H50.471C50.171 27.0503 49.913 26.9483 49.697 26.7443C49.493 26.5283 49.391 26.2703 49.391 25.9703V16.1243C49.391 15.8243 49.493 15.5723 49.697 15.3683C49.913 15.1523 50.171 15.0443 50.471 15.0443H53.495C54.431 15.0443 55.277 15.2003 56.033 15.5123C56.789 15.8123 57.431 16.2323 57.959 16.7723C58.499 17.3123 58.913 17.9483 59.201 18.6803C59.501 19.4123 59.651 20.2043 59.651 21.0563ZM58.103 21.0563C58.103 20.4083 58.001 19.8023 57.797 19.2383C57.593 18.6623 57.293 18.1643 56.897 17.7443C56.513 17.3243 56.033 16.9943 55.457 16.7543C54.893 16.5023 54.239 16.3763 53.495 16.3763H50.885V25.7183H53.495C54.227 25.7183 54.875 25.5983 55.439 25.3583C56.015 25.1063 56.501 24.7703 56.897 24.3503C57.293 23.9303 57.593 23.4383 57.797 22.8743C58.001 22.3103 58.103 21.7043 58.103 21.0563ZM70.0136 26.3663C70.0136 26.5703 69.9476 26.7383 69.8156 26.8703C69.6956 26.9903 69.5456 27.0503 69.3656 27.0503H63.1196C62.8196 27.0503 62.5616 26.9483 62.3456 26.7443C62.1416 26.5283 62.0396 26.2703 62.0396 25.9703V16.1243C62.0396 15.8243 62.1416 15.5723 62.3456 15.3683C62.5616 15.1523 62.8196 15.0443 63.1196 15.0443H69.3656C69.5456 15.0443 69.6956 15.1103 69.8156 15.2423C69.9476 15.3623 70.0136 15.5243 70.0136 15.7283C70.0136 15.9083 69.9476 16.0643 69.8156 16.1963C69.6956 16.3163 69.5456 16.3763 69.3656 16.3763H63.5336V20.2463H69.2396C69.4196 20.2463 69.5696 20.3123 69.6896 20.4443C69.8216 20.5643 69.8876 20.7263 69.8876 20.9303C69.8876 21.1103 69.8216 21.2663 69.6896 21.3983C69.5696 21.5183 69.4196 21.5783 69.2396 21.5783H63.5336V25.7183H69.3656C69.5456 25.7183 69.6956 25.7843 69.8156 25.9163C69.9476 26.0363 70.0136 26.1863 70.0136 26.3663ZM82.2686 26.3123C82.2686 26.4203 82.2446 26.5283 82.1966 26.6363C82.1606 26.7323 82.1006 26.8223 82.0166 26.9063C81.9446 26.9783 81.8486 27.0383 81.7286 27.0863C81.6206 27.1343 81.5006 27.1583 81.3686 27.1583C81.2246 27.1583 81.0866 27.1223 80.9546 27.0503C80.8226 26.9903 80.7146 26.9003 80.6306 26.7803L73.8266 17.4743V26.4203C73.8266 26.6243 73.7546 26.7983 73.6106 26.9423C73.4666 27.0863 73.2866 27.1583 73.0706 27.1583C72.8666 27.1583 72.6926 27.0863 72.5486 26.9423C72.4046 26.7983 72.3326 26.6243 72.3326 26.4203V15.8363C72.3326 15.7163 72.3566 15.6023 72.4046 15.4943C72.4526 15.3863 72.5186 15.2903 72.6026 15.2063C72.6866 15.1223 72.7826 15.0563 72.8906 15.0083C73.0106 14.9603 73.1426 14.9363 73.2866 14.9363C73.4426 14.9363 73.5866 14.9723 73.7186 15.0443C73.8626 15.1043 73.9826 15.2003 74.0786 15.3323L80.7746 24.4223V15.6563C80.7746 15.4523 80.8466 15.2843 80.9906 15.1523C81.1346 15.0083 81.3206 14.9363 81.5486 14.9363C81.7526 14.9363 81.9206 15.0083 82.0526 15.1523C82.1966 15.2843 82.2686 15.4523 82.2686 15.6563V26.3123Z" fill="black"/>
<path d="M16.802 56.2183C14.408 56.2183 13.162 54.7623 13.162 52.4663V46.7123H13.974V52.4523C13.974 54.3423 14.968 55.4903 16.802 55.4903C18.636 55.4903 19.63 54.3423 19.63 52.4523V46.7123H20.442V52.4663C20.442 54.7763 19.21 56.2183 16.802 56.2183ZM28.0237 56.0503H27.2957V51.4723C27.2957 50.1703 26.6377 49.7783 25.6577 49.7783C24.7897 49.7783 23.8937 50.3243 23.4597 50.9403V56.0503H22.7317V49.2883H23.4597V50.3103C23.9497 49.7223 24.9157 49.1203 25.8957 49.1203C27.2677 49.1203 28.0237 49.7923 28.0237 51.3183V56.0503ZM32.3082 56.2183C31.2162 56.2183 30.3762 55.8963 29.7042 55.1403L30.1382 54.6083C30.5722 55.1543 31.3702 55.6023 32.3222 55.6023C33.4562 55.6023 34.1282 55.0143 34.1282 54.2303C34.1282 52.3823 29.8582 53.4323 29.8582 50.9963C29.8582 49.9603 30.7402 49.1203 32.2662 49.1203C33.4282 49.1203 34.1982 49.5683 34.6882 50.1143L34.2822 50.6323C33.8902 50.1003 33.1622 49.7363 32.2662 49.7363C31.2162 49.7363 30.5862 50.2683 30.5862 50.9683C30.5862 52.6623 34.8422 51.6263 34.8422 54.2303C34.8422 55.3223 34.0022 56.2183 32.3082 56.2183ZM38.188 56.2183C37.292 56.2183 36.858 55.6723 36.858 54.7483V49.9323H35.738V49.2883H36.858V47.4403H37.6V49.2883H38.972V49.9323H37.6V54.6363C37.6 55.1823 37.824 55.5603 38.3 55.5603C38.622 55.5603 38.902 55.4063 39.056 55.2383L39.336 55.7983C39.07 56.0503 38.748 56.2183 38.188 56.2183ZM40.9375 48.2243C40.6435 48.2243 40.3775 47.9723 40.3775 47.6643C40.3775 47.3563 40.6435 47.1183 40.9375 47.1183C41.2455 47.1183 41.4975 47.3563 41.4975 47.6643C41.4975 47.9723 41.2455 48.2243 40.9375 48.2243ZM41.3015 56.0503H40.5735V49.2883H41.3015V56.0503ZM45.0376 56.2183C44.1416 56.2183 43.7076 55.6723 43.7076 54.7483V49.9323H42.5876V49.2883H43.7076V47.4403H44.4496V49.2883H45.8216V49.9323H44.4496V54.6363C44.4496 55.1823 44.6736 55.5603 45.1496 55.5603C45.4716 55.5603 45.7516 55.4063 45.9056 55.2383L46.1856 55.7983C45.9196 56.0503 45.5976 56.2183 45.0376 56.2183ZM50.3211 56.2183C48.3331 56.2183 47.0451 54.6363 47.0451 52.6623C47.0451 50.6883 48.3331 49.1203 50.3211 49.1203C51.4971 49.1203 52.1691 49.5823 52.7151 50.2683L52.2111 50.7163C51.7211 50.0443 51.1051 49.7783 50.3631 49.7783C48.7811 49.7783 47.8151 51.0383 47.8151 52.6623C47.8151 54.2863 48.7811 55.5603 50.3631 55.5603C51.1051 55.5603 51.7211 55.2803 52.2111 54.6083L52.7151 55.0563C52.1691 55.7563 51.4971 56.2183 50.3211 56.2183ZM59.633 56.0503H58.905V51.4443C58.905 50.1423 58.247 49.7783 57.267 49.7783C56.399 49.7783 55.503 50.3243 55.069 50.9403V56.0503H54.341V46.7123H55.069V50.3103C55.559 49.7223 56.525 49.1203 57.505 49.1203C58.877 49.1203 59.633 49.7643 59.633 51.2903V56.0503ZM64.8976 56.2183C62.9236 56.2183 61.5236 54.7483 61.5236 52.6623C61.5236 50.7023 62.8956 49.1203 64.7716 49.1203C66.8296 49.1203 67.9636 50.7443 67.9636 52.7043V52.9003H62.3076C62.3776 54.3703 63.3576 55.5883 64.9536 55.5883C65.8076 55.5883 66.5916 55.2663 67.1656 54.6503L67.5436 55.1263C66.8716 55.8263 66.0176 56.2183 64.8976 56.2183ZM67.2216 52.3263C67.2076 51.1783 66.4516 49.7503 64.7576 49.7503C63.1616 49.7503 62.3636 51.1503 62.3076 52.3263H67.2216ZM75.5709 56.0503H74.8289V54.9723C74.3529 55.6723 73.4849 56.2183 72.4769 56.2183C70.6849 56.2183 69.4669 54.8463 69.4669 52.6763C69.4669 50.5343 70.6849 49.1203 72.4769 49.1203C73.4429 49.1203 74.2969 49.6103 74.8289 50.3803V46.7123H75.5709V56.0503ZM72.6029 55.5603C73.5549 55.5603 74.4369 55.0003 74.8289 54.3563V51.0103C74.4369 50.3523 73.5549 49.7783 72.6029 49.7783C71.1049 49.7783 70.2369 51.0383 70.2369 52.6763C70.2369 54.3143 71.1049 55.5603 72.6029 55.5603ZM82.096 56.3303H81.494V46.4323H82.096V56.3303ZM90.4932 56.2183C88.9672 56.2183 87.8612 55.5043 87.3152 54.6643L87.8612 54.1883C88.3792 54.9303 89.2892 55.4903 90.4792 55.4903C91.9212 55.4903 92.8312 54.7343 92.8312 53.5023C92.8312 52.1583 91.7252 51.5983 90.3252 51.5983C89.9472 51.5983 89.5972 51.6123 89.4572 51.6263V50.8703C89.5972 50.8843 89.9472 50.8843 90.3252 50.8843C91.5712 50.8843 92.6912 50.3523 92.6912 49.1063C92.6912 47.9443 91.6552 47.3003 90.4512 47.3003C89.3872 47.3003 88.6312 47.7203 87.9452 48.4903L87.4412 47.9863C88.0992 47.1883 89.1352 46.5723 90.4932 46.5723C92.1172 46.5723 93.5032 47.4543 93.5032 49.0363C93.5032 50.4643 92.2992 51.0803 91.5012 51.2203C92.3132 51.3043 93.6432 52.0043 93.6432 53.5443C93.6432 55.0843 92.4812 56.2183 90.4932 56.2183ZM100.065 56.0503H99.2675V46.7123H102.767C104.559 46.7123 105.581 47.9723 105.581 49.4423C105.581 50.9123 104.545 52.1723 102.767 52.1723H100.065V56.0503ZM102.683 51.4443C103.929 51.4443 104.741 50.6043 104.741 49.4423C104.741 48.2663 103.929 47.4403 102.683 47.4403H100.065V51.4443H102.683ZM107.602 48.2243C107.308 48.2243 107.042 47.9723 107.042 47.6643C107.042 47.3563 107.308 47.1183 107.602 47.1183C107.91 47.1183 108.162 47.3563 108.162 47.6643C108.162 47.9723 107.91 48.2243 107.602 48.2243ZM107.966 56.0503H107.238V49.2883H107.966V56.0503ZM113.228 56.2183C111.254 56.2183 109.854 54.7483 109.854 52.6623C109.854 50.7023 111.226 49.1203 113.102 49.1203C115.16 49.1203 116.294 50.7443 116.294 52.7043V52.9003H110.638C110.708 54.3703 111.688 55.5883 113.284 55.5883C114.138 55.5883 114.922 55.2663 115.496 54.6503L115.874 55.1263C115.202 55.8263 114.348 56.2183 113.228 56.2183ZM115.552 52.3263C115.538 51.1783 114.782 49.7503 113.088 49.7503C111.492 49.7503 110.694 51.1503 110.638 52.3263H115.552ZM121.073 56.2183C119.085 56.2183 117.797 54.6363 117.797 52.6623C117.797 50.6883 119.085 49.1203 121.073 49.1203C122.249 49.1203 122.921 49.5823 123.467 50.2683L122.963 50.7163C122.473 50.0443 121.857 49.7783 121.115 49.7783C119.533 49.7783 118.567 51.0383 118.567 52.6623C118.567 54.2863 119.533 55.5603 121.115 55.5603C121.857 55.5603 122.473 55.2803 122.963 54.6083L123.467 55.0563C122.921 55.7563 122.249 56.2183 121.073 56.2183ZM128.089 56.2183C126.115 56.2183 124.715 54.7483 124.715 52.6623C124.715 50.7023 126.087 49.1203 127.963 49.1203C130.021 49.1203 131.155 50.7443 131.155 52.7043V52.9003H125.499C125.569 54.3703 126.549 55.5883 128.145 55.5883C128.999 55.5883 129.783 55.2663 130.357 54.6503L130.735 55.1263C130.063 55.8263 129.209 56.2183 128.089 56.2183ZM130.413 52.3263C130.399 51.1783 129.643 49.7503 127.949 49.7503C126.353 49.7503 125.555 51.1503 125.499 52.3263H130.413ZM137.485 56.0503H136.687V46.7123H140.187C141.979 46.7123 143.001 47.9723 143.001 49.4423C143.001 50.9123 141.965 52.1723 140.187 52.1723H137.485V56.0503ZM140.103 51.4443C141.349 51.4443 142.161 50.6043 142.161 49.4423C142.161 48.2663 141.349 47.4403 140.103 47.4403H137.485V51.4443H140.103ZM145.385 56.0503H144.657V49.2883H145.385V50.4503C145.959 49.6943 146.729 49.1483 147.667 49.1483V49.9463C147.541 49.9183 147.443 49.9183 147.303 49.9183C146.617 49.9183 145.693 50.5343 145.385 51.1223V56.0503ZM149.465 48.2243C149.171 48.2243 148.905 47.9723 148.905 47.6643C148.905 47.3563 149.171 47.1183 149.465 47.1183C149.773 47.1183 150.025 47.3563 150.025 47.6643C150.025 47.9723 149.773 48.2243 149.465 48.2243ZM149.829 56.0503H149.101V49.2883H149.829V56.0503ZM157.387 56.0503H156.659V51.4723C156.659 50.1703 156.001 49.7783 155.021 49.7783C154.153 49.7783 153.257 50.3243 152.823 50.9403V56.0503H152.095V49.2883H152.823V50.3103C153.313 49.7223 154.279 49.1203 155.259 49.1203C156.631 49.1203 157.387 49.7923 157.387 51.3183V56.0503ZM161.125 56.2183C160.229 56.2183 159.795 55.6723 159.795 54.7483V49.9323H158.675V49.2883H159.795V47.4403H160.537V49.2883H161.909V49.9323H160.537V54.6363C160.537 55.1823 160.761 55.5603 161.237 55.5603C161.559 55.5603 161.839 55.4063 161.993 55.2383L162.273 55.7983C162.007 56.0503 161.685 56.2183 161.125 56.2183ZM166.507 56.2183C164.533 56.2183 163.133 54.7483 163.133 52.6623C163.133 50.7023 164.505 49.1203 166.381 49.1203C168.439 49.1203 169.573 50.7443 169.573 52.7043V52.9003H163.917C163.987 54.3703 164.967 55.5883 166.563 55.5883C167.417 55.5883 168.201 55.2663 168.775 54.6503L169.153 55.1263C168.481 55.8263 167.627 56.2183 166.507 56.2183ZM168.831 52.3263C168.817 51.1783 168.061 49.7503 166.367 49.7503C164.771 49.7503 163.973 51.1503 163.917 52.3263H168.831ZM177.18 56.0503H176.438V54.9723C175.962 55.6723 175.094 56.2183 174.086 56.2183C172.294 56.2183 171.076 54.8463 171.076 52.6763C171.076 50.5343 172.294 49.1203 174.086 49.1203C175.052 49.1203 175.906 49.6103 176.438 50.3803V46.7123H177.18V56.0503ZM174.212 55.5603C175.164 55.5603 176.046 55.0003 176.438 54.3563V51.0103C176.046 50.3523 175.164 49.7783 174.212 49.7783C172.714 49.7783 171.846 51.0383 171.846 52.6763C171.846 54.3143 172.714 55.5603 174.212 55.5603ZM18.3 76.0503H12.966V66.7123H13.778V75.3223H18.3V76.0503ZM24.7088 76.0503H23.9808V75.2523C23.3788 75.9103 22.6228 76.2183 21.6848 76.2183C20.5228 76.2183 19.3188 75.4203 19.3188 73.9643C19.3188 72.4943 20.5088 71.7243 21.6848 71.7243C22.6228 71.7243 23.3928 72.0323 23.9808 72.6903V71.3183C23.9808 70.3103 23.1688 69.7643 22.1748 69.7643C21.3208 69.7643 20.6628 70.0583 20.0468 70.7583L19.6408 70.2543C20.3408 69.4983 21.1248 69.1203 22.2448 69.1203C23.6168 69.1203 24.7088 69.7783 24.7088 71.2903V76.0503ZM21.9368 75.6443C22.7488 75.6443 23.5048 75.3363 23.9808 74.7203V73.2363C23.5048 72.6063 22.7488 72.2983 21.9368 72.2983C20.8308 72.2983 20.0888 73.0123 20.0888 73.9783C20.0888 74.9303 20.8308 75.6443 21.9368 75.6443ZM33.4796 76.0503H32.7796L30.8896 70.2683L28.9856 76.0503H28.2856L26.0876 69.2883H26.8716L28.6636 75.0283L30.5676 69.2883H31.1976L33.1016 75.0283L34.8936 69.2883H35.6776L33.4796 76.0503ZM42.3381 76.0503H41.6101V71.4723C41.6101 70.1703 40.9521 69.7783 39.9721 69.7783C39.1041 69.7783 38.2081 70.3243 37.7741 70.9403V76.0503H37.0461V69.2883H37.7741V70.3103C38.2641 69.7223 39.2301 69.1203 40.2101 69.1203C41.5821 69.1203 42.3381 69.7923 42.3381 71.3183V76.0503ZM48.8597 76.3303H48.2577V66.4323H48.8597V76.3303ZM58.9789 76.2183C56.2349 76.2183 54.4429 74.1183 54.4429 71.3883C54.4429 68.6583 56.2349 66.5583 58.9789 66.5583C61.7089 66.5583 63.5149 68.6583 63.5149 71.3883C63.5149 74.1183 61.7089 76.2183 58.9789 76.2183ZM58.9789 75.4903C61.2189 75.4903 62.6749 73.7403 62.6749 71.3883C62.6749 69.0223 61.2189 67.2863 58.9789 67.2863C56.7249 67.2863 55.2829 69.0223 55.2829 71.3883C55.2829 73.7403 56.7249 75.4903 58.9789 75.4903ZM68.2661 76.0503H67.4541V67.4403H64.4021V66.7123H71.3181V67.4403H68.2661V76.0503ZM78.1145 76.0503H72.7805V66.7123H73.5925V75.3223H78.1145V76.0503ZM82.3757 72.9983H79.0157V72.3263H82.3757V72.9983ZM89.737 76.0503H83.577V75.3923C86.755 72.8303 88.883 71.0103 88.883 69.2043C88.883 67.8603 87.777 67.3003 86.755 67.3003C85.593 67.3003 84.697 67.8043 84.193 68.5183L83.647 68.0143C84.305 67.1183 85.439 66.5723 86.755 66.5723C88.127 66.5723 89.695 67.3563 89.695 69.2043C89.695 71.2623 87.525 73.1383 84.823 75.3223H89.737V76.0503ZM95.1274 76.2183C93.5734 76.2183 92.6214 75.6163 91.9774 74.6923L92.5094 74.1603C93.1114 75.0143 93.9234 75.4903 95.1274 75.4903C96.4854 75.4903 97.4654 74.5103 97.4654 73.2363C97.4654 71.8223 96.4854 70.9543 95.1414 70.9543C94.2874 70.9543 93.5594 71.2343 92.8734 71.8643L92.2714 71.6123V66.7123H97.6614V67.4403H93.0694V71.0943C93.5314 70.6463 94.3294 70.2263 95.2954 70.2263C96.8634 70.2263 98.2774 71.2623 98.2774 73.2083C98.2774 75.0703 96.8494 76.2183 95.1274 76.2183ZM102.87 72.9983H99.5098V72.3263H102.87V72.9983ZM106.913 76.2183C105.387 76.2183 104.281 75.5043 103.735 74.6643L104.281 74.1883C104.799 74.9303 105.709 75.4903 106.899 75.4903C108.341 75.4903 109.251 74.7343 109.251 73.5023C109.251 72.1583 108.145 71.5983 106.745 71.5983C106.367 71.5983 106.017 71.6123 105.877 71.6263V70.8703C106.017 70.8843 106.367 70.8843 106.745 70.8843C107.991 70.8843 109.111 70.3523 109.111 69.1063C109.111 67.9443 108.075 67.3003 106.871 67.3003C105.807 67.3003 105.051 67.7203 104.365 68.4903L103.861 67.9863C104.519 67.1883 105.555 66.5723 106.913 66.5723C108.537 66.5723 109.923 67.4543 109.923 69.0363C109.923 70.4643 108.719 71.0803 107.921 71.2203C108.733 71.3043 110.063 72.0043 110.063 73.5443C110.063 75.0843 108.901 76.2183 106.913 76.2183ZM117.846 76.0503H111.686V75.3923C114.864 72.8303 116.992 71.0103 116.992 69.2043C116.992 67.8603 115.886 67.3003 114.864 67.3003C113.702 67.3003 112.806 67.8043 112.302 68.5183L111.756 68.0143C112.414 67.1183 113.548 66.5723 114.864 66.5723C116.236 66.5723 117.804 67.3563 117.804 69.2043C117.804 71.2623 115.634 73.1383 112.932 75.3223H117.846V76.0503ZM121.641 76.0503H120.759L124.679 67.4403H119.513V66.7123H125.631V67.2723L121.641 76.0503Z" fill="black"/>
<path d="M17.7402 99.168C16.2002 99.168 15.0382 98.538 14.3242 97.684L14.8422 97.082C15.4442 97.768 16.4242 98.44 17.7682 98.44C19.6722 98.44 20.2182 97.376 20.2182 96.578C20.2182 93.834 14.6182 95.262 14.6182 92C14.6182 90.474 15.9902 89.508 17.6842 89.508C19.0702 89.508 20.1342 89.998 20.8482 90.824L20.3162 91.412C19.6442 90.6 18.6922 90.236 17.6422 90.236C16.3962 90.236 15.4582 90.95 15.4582 91.958C15.4582 94.352 21.0582 93.036 21.0582 96.522C21.0582 97.726 20.2602 99.168 17.7402 99.168ZM28.2409 99H27.5129V94.394C27.5129 93.092 26.8549 92.728 25.8749 92.728C25.0069 92.728 24.1109 93.274 23.6769 93.89V99H22.9489V89.662H23.6769V93.26C24.1669 92.672 25.1329 92.07 26.1129 92.07C27.4849 92.07 28.2409 92.714 28.2409 94.24V99ZM33.3655 99.168C31.3915 99.168 30.1315 97.586 30.1315 95.612C30.1315 93.638 31.3915 92.07 33.3655 92.07C35.3675 92.07 36.6275 93.638 36.6275 95.612C36.6275 97.586 35.3675 99.168 33.3655 99.168ZM33.3655 98.51C34.9615 98.51 35.8435 97.124 35.8435 95.612C35.8435 94.114 34.9615 92.728 33.3655 92.728C31.7975 92.728 30.9015 94.114 30.9015 95.612C30.9015 97.124 31.7975 98.51 33.3655 98.51ZM41.5875 99.168C40.6355 99.168 39.7815 98.678 39.2355 97.908V101.576H38.5075V92.238H39.2355V93.302C39.7115 92.616 40.5795 92.07 41.5875 92.07C43.3935 92.07 44.6115 93.442 44.6115 95.612C44.6115 97.768 43.3935 99.168 41.5875 99.168ZM41.4615 98.51C42.9735 98.51 43.8275 97.25 43.8275 95.612C43.8275 93.974 42.9735 92.728 41.4615 92.728C40.5235 92.728 39.6275 93.288 39.2355 93.932V97.278C39.6275 97.922 40.5235 98.51 41.4615 98.51ZM54.4839 99.182C51.8519 99.182 49.7519 97.222 49.7519 94.338C49.7519 91.454 51.8519 89.508 54.4839 89.508C56.0239 89.508 57.1439 90.124 57.9979 91.104L57.3959 91.538C56.7379 90.754 55.6739 90.236 54.4839 90.236C52.2999 90.236 50.5919 91.902 50.5919 94.338C50.5919 96.746 52.2999 98.454 54.4839 98.454C55.7299 98.454 56.7239 97.838 57.2279 97.32V95.08H53.6999V94.366H58.0259V97.628C57.1999 98.552 55.9539 99.182 54.4839 99.182ZM62.8831 99.168C60.9091 99.168 59.6491 97.586 59.6491 95.612C59.6491 93.638 60.9091 92.07 62.8831 92.07C64.8851 92.07 66.1451 93.638 66.1451 95.612C66.1451 97.586 64.8851 99.168 62.8831 99.168ZM62.8831 98.51C64.4791 98.51 65.3611 97.124 65.3611 95.612C65.3611 94.114 64.4791 92.728 62.8831 92.728C61.3151 92.728 60.4191 94.114 60.4191 95.612C60.4191 97.124 61.3151 98.51 62.8831 98.51ZM68.7531 99H68.0251V89.662H68.7531V99ZM76.7453 99H76.0033V97.922C75.5273 98.622 74.6593 99.168 73.6513 99.168C71.8593 99.168 70.6413 97.796 70.6413 95.626C70.6413 93.484 71.8593 92.07 73.6513 92.07C74.6173 92.07 75.4713 92.56 76.0033 93.33V89.662H76.7453V99ZM73.7773 98.51C74.7293 98.51 75.6113 97.95 76.0033 97.306V93.96C75.6113 93.302 74.7293 92.728 73.7773 92.728C72.2793 92.728 71.4113 93.988 71.4113 95.626C71.4113 97.264 72.2793 98.51 73.7773 98.51ZM82.0133 99.168C80.0393 99.168 78.6393 97.698 78.6393 95.612C78.6393 93.652 80.0113 92.07 81.8873 92.07C83.9453 92.07 85.0793 93.694 85.0793 95.654V95.85H79.4233C79.4933 97.32 80.4733 98.538 82.0693 98.538C82.9233 98.538 83.7073 98.216 84.2813 97.6L84.6593 98.076C83.9873 98.776 83.1333 99.168 82.0133 99.168ZM84.3373 95.276C84.3233 94.128 83.5673 92.7 81.8733 92.7C80.2773 92.7 79.4793 94.1 79.4233 95.276H84.3373ZM92.2527 99H91.5247V94.422C91.5247 93.12 90.8667 92.728 89.8867 92.728C89.0187 92.728 88.1227 93.274 87.6887 93.89V99H86.9607V92.238H87.6887V93.26C88.1787 92.672 89.1447 92.07 90.1247 92.07C91.4967 92.07 92.2527 92.742 92.2527 94.268V99Z" fill="black"/>
<path d="M13.6802 100.862H38.2283V101.142H13.6802V100.862ZM39.5149 100.862H93.3867V101.142H39.5149V100.862Z" fill="black"/>
</svg>
