<svg width="228" height="114" viewBox="0 0 228 114" fill="none" xmlns="http://www.w3.org/2000/svg">
<rect width="228" height="114" fill="#C03A77"/>
<path d="M22.3904 18.6623C22.3904 19.1543 22.3064 19.6223 22.1384 20.0663C21.9704 20.4983 21.7244 20.8823 21.4004 21.2183C21.0764 21.5423 20.6804 21.8003 20.2124 21.9923C19.7444 22.1843 19.2164 22.2803 18.6284 22.2803H15.2984V26.4203C15.2984 26.6243 15.2264 26.7983 15.0824 26.9423C14.9384 27.0863 14.7584 27.1583 14.5424 27.1583C14.3384 27.1583 14.1644 27.0863 14.0204 26.9423C13.8764 26.7983 13.8044 26.6243 13.8044 26.4203V16.1243C13.8044 15.8243 13.9064 15.5723 14.1104 15.3683C14.3264 15.1523 14.5844 15.0443 14.8844 15.0443H18.6284C19.2284 15.0443 19.7624 15.1403 20.2304 15.3323C20.6984 15.5243 21.0884 15.7883 21.4004 16.1243C21.7244 16.4483 21.9704 16.8323 22.1384 17.2763C22.3064 17.7083 22.3904 18.1703 22.3904 18.6623ZM20.8424 18.6623C20.8424 17.9783 20.6204 17.4263 20.1764 17.0063C19.7444 16.5863 19.1684 16.3763 18.4484 16.3763H15.2984V20.9483H18.4484C19.1684 20.9483 19.7444 20.7383 20.1764 20.3183C20.6204 19.8983 20.8424 19.3463 20.8424 18.6623ZM25.9078 26.4203C25.9078 26.6243 25.8358 26.7983 25.6918 26.9423C25.5478 27.0863 25.3678 27.1583 25.1518 27.1583C24.9478 27.1583 24.7738 27.0863 24.6298 26.9423C24.4858 26.7983 24.4138 26.6243 24.4138 26.4203V15.6563C24.4138 15.4523 24.4858 15.2843 24.6298 15.1523C24.7738 15.0083 24.9598 14.9363 25.1878 14.9363C25.3918 14.9363 25.5598 15.0083 25.6918 15.1523C25.8358 15.2843 25.9078 15.4523 25.9078 15.6563V26.4203ZM38.7015 26.3123C38.7015 26.4203 38.6775 26.5283 38.6295 26.6363C38.5935 26.7323 38.5335 26.8223 38.4495 26.9063C38.3775 26.9783 38.2815 27.0383 38.1615 27.0863C38.0535 27.1343 37.9335 27.1583 37.8015 27.1583C37.6575 27.1583 37.5195 27.1223 37.3875 27.0503C37.2555 26.9903 37.1475 26.9003 37.0635 26.7803L30.2595 17.4743V26.4203C30.2595 26.6243 30.1875 26.7983 30.0435 26.9423C29.8995 27.0863 29.7195 27.1583 29.5035 27.1583C29.2995 27.1583 29.1255 27.0863 28.9815 26.9423C28.8375 26.7983 28.7655 26.6243 28.7655 26.4203V15.8363C28.7655 15.7163 28.7895 15.6023 28.8375 15.4943C28.8855 15.3863 28.9515 15.2903 29.0355 15.2063C29.1195 15.1223 29.2155 15.0563 29.3235 15.0083C29.4435 14.9603 29.5755 14.9363 29.7195 14.9363C29.8755 14.9363 30.0195 14.9723 30.1515 15.0443C30.2955 15.1043 30.4155 15.2003 30.5115 15.3323L37.2075 24.4223V15.6563C37.2075 15.4523 37.2795 15.2843 37.4235 15.1523C37.5675 15.0083 37.7535 14.9363 37.9815 14.9363C38.1855 14.9363 38.3535 15.0083 38.4855 15.1523C38.6295 15.2843 38.7015 15.4523 38.7015 15.6563V26.3123ZM49.9426 26.4563C49.9426 26.6243 49.8766 26.7863 49.7446 26.9423C49.6126 27.0983 49.4386 27.1763 49.2226 27.1763C49.1266 27.1763 49.0306 27.1523 48.9346 27.1043C48.8386 27.0683 48.7546 27.0083 48.6826 26.9243L44.2546 21.6503L43.0486 23.0183V26.4203C43.0486 26.6243 42.9766 26.7983 42.8326 26.9423C42.6886 27.0863 42.5086 27.1583 42.2926 27.1583C42.0886 27.1583 41.9146 27.0863 41.7706 26.9423C41.6266 26.7983 41.5546 26.6243 41.5546 26.4203V15.6563C41.5546 15.4523 41.6266 15.2843 41.7706 15.1523C41.9146 15.0083 42.1006 14.9363 42.3286 14.9363C42.5326 14.9363 42.7006 15.0083 42.8326 15.1523C42.9766 15.2843 43.0486 15.4523 43.0486 15.6563V21.2543L48.2326 15.1883C48.3046 15.1043 48.3826 15.0443 48.4666 15.0083C48.5626 14.9723 48.6586 14.9543 48.7546 14.9543C48.9586 14.9543 49.1326 15.0203 49.2766 15.1523C49.4206 15.2843 49.4926 15.4523 49.4926 15.6563C49.4926 15.8243 49.4386 15.9623 49.3306 16.0703L45.2266 20.7503L49.7806 26.0243C49.8886 26.1563 49.9426 26.3003 49.9426 26.4563Z" fill="white"/>
<path d="M16.802 52.2183C14.408 52.2183 13.162 50.7623 13.162 48.4663V42.7123H13.974V48.4523C13.974 50.3423 14.968 51.4903 16.802 51.4903C18.636 51.4903 19.63 50.3423 19.63 48.4523V42.7123H20.442V48.4663C20.442 50.7763 19.21 52.2183 16.802 52.2183ZM28.0237 52.0503H27.2957V47.4723C27.2957 46.1703 26.6377 45.7783 25.6577 45.7783C24.7897 45.7783 23.8937 46.3243 23.4597 46.9403V52.0503H22.7317V45.2883H23.4597V46.3103C23.9497 45.7223 24.9157 45.1203 25.8957 45.1203C27.2677 45.1203 28.0237 45.7923 28.0237 47.3183V52.0503ZM32.3082 52.2183C31.2162 52.2183 30.3762 51.8963 29.7042 51.1403L30.1382 50.6083C30.5722 51.1543 31.3702 51.6023 32.3222 51.6023C33.4562 51.6023 34.1282 51.0143 34.1282 50.2303C34.1282 48.3823 29.8582 49.4323 29.8582 46.9963C29.8582 45.9603 30.7402 45.1203 32.2662 45.1203C33.4282 45.1203 34.1982 45.5683 34.6882 46.1143L34.2822 46.6323C33.8902 46.1003 33.1622 45.7363 32.2662 45.7363C31.2162 45.7363 30.5862 46.2683 30.5862 46.9683C30.5862 48.6623 34.8422 47.6263 34.8422 50.2303C34.8422 51.3223 34.0022 52.2183 32.3082 52.2183ZM38.188 52.2183C37.292 52.2183 36.858 51.6723 36.858 50.7483V45.9323H35.738V45.2883H36.858V43.4403H37.6V45.2883H38.972V45.9323H37.6V50.6363C37.6 51.1823 37.824 51.5603 38.3 51.5603C38.622 51.5603 38.902 51.4063 39.056 51.2383L39.336 51.7983C39.07 52.0503 38.748 52.2183 38.188 52.2183ZM40.9375 44.2243C40.6435 44.2243 40.3775 43.9723 40.3775 43.6643C40.3775 43.3563 40.6435 43.1183 40.9375 43.1183C41.2455 43.1183 41.4975 43.3563 41.4975 43.6643C41.4975 43.9723 41.2455 44.2243 40.9375 44.2243ZM41.3015 52.0503H40.5735V45.2883H41.3015V52.0503ZM45.0376 52.2183C44.1416 52.2183 43.7076 51.6723 43.7076 50.7483V45.9323H42.5876V45.2883H43.7076V43.4403H44.4496V45.2883H45.8216V45.9323H44.4496V50.6363C44.4496 51.1823 44.6736 51.5603 45.1496 51.5603C45.4716 51.5603 45.7516 51.4063 45.9056 51.2383L46.1856 51.7983C45.9196 52.0503 45.5976 52.2183 45.0376 52.2183ZM50.3211 52.2183C48.3331 52.2183 47.0451 50.6363 47.0451 48.6623C47.0451 46.6883 48.3331 45.1203 50.3211 45.1203C51.4971 45.1203 52.1691 45.5823 52.7151 46.2683L52.2111 46.7163C51.7211 46.0443 51.1051 45.7783 50.3631 45.7783C48.7811 45.7783 47.8151 47.0383 47.8151 48.6623C47.8151 50.2863 48.7811 51.5603 50.3631 51.5603C51.1051 51.5603 51.7211 51.2803 52.2111 50.6083L52.7151 51.0563C52.1691 51.7563 51.4971 52.2183 50.3211 52.2183ZM59.633 52.0503H58.905V47.4443C58.905 46.1423 58.247 45.7783 57.267 45.7783C56.399 45.7783 55.503 46.3243 55.069 46.9403V52.0503H54.341V42.7123H55.069V46.3103C55.559 45.7223 56.525 45.1203 57.505 45.1203C58.877 45.1203 59.633 45.7643 59.633 47.2903V52.0503ZM64.8976 52.2183C62.9236 52.2183 61.5236 50.7483 61.5236 48.6623C61.5236 46.7023 62.8956 45.1203 64.7716 45.1203C66.8296 45.1203 67.9636 46.7443 67.9636 48.7043V48.9003H62.3076C62.3776 50.3703 63.3576 51.5883 64.9536 51.5883C65.8076 51.5883 66.5916 51.2663 67.1656 50.6503L67.5436 51.1263C66.8716 51.8263 66.0176 52.2183 64.8976 52.2183ZM67.2216 48.3263C67.2076 47.1783 66.4516 45.7503 64.7576 45.7503C63.1616 45.7503 62.3636 47.1503 62.3076 48.3263H67.2216ZM75.5709 52.0503H74.8289V50.9723C74.3529 51.6723 73.4849 52.2183 72.4769 52.2183C70.6849 52.2183 69.4669 50.8463 69.4669 48.6763C69.4669 46.5343 70.6849 45.1203 72.4769 45.1203C73.4429 45.1203 74.2969 45.6103 74.8289 46.3803V42.7123H75.5709V52.0503ZM72.6029 51.5603C73.5549 51.5603 74.4369 51.0003 74.8289 50.3563V47.0103C74.4369 46.3523 73.5549 45.7783 72.6029 45.7783C71.1049 45.7783 70.2369 47.0383 70.2369 48.6763C70.2369 50.3143 71.1049 51.5603 72.6029 51.5603ZM82.096 52.3303H81.494V42.4323H82.096V52.3303ZM90.4932 52.2183C88.9672 52.2183 87.8612 51.5043 87.3152 50.6643L87.8612 50.1883C88.3792 50.9303 89.2892 51.4903 90.4792 51.4903C91.9212 51.4903 92.8312 50.7343 92.8312 49.5023C92.8312 48.1583 91.7252 47.5983 90.3252 47.5983C89.9472 47.5983 89.5972 47.6123 89.4572 47.6263V46.8703C89.5972 46.8843 89.9472 46.8843 90.3252 46.8843C91.5712 46.8843 92.6912 46.3523 92.6912 45.1063C92.6912 43.9443 91.6552 43.3003 90.4512 43.3003C89.3872 43.3003 88.6312 43.7203 87.9452 44.4903L87.4412 43.9863C88.0992 43.1883 89.1352 42.5723 90.4932 42.5723C92.1172 42.5723 93.5032 43.4543 93.5032 45.0363C93.5032 46.4643 92.2992 47.0803 91.5012 47.2203C92.3132 47.3043 93.6432 48.0043 93.6432 49.5443C93.6432 51.0843 92.4812 52.2183 90.4932 52.2183ZM100.065 52.0503H99.2675V42.7123H102.767C104.559 42.7123 105.581 43.9723 105.581 45.4423C105.581 46.9123 104.545 48.1723 102.767 48.1723H100.065V52.0503ZM102.683 47.4443C103.929 47.4443 104.741 46.6043 104.741 45.4423C104.741 44.2663 103.929 43.4403 102.683 43.4403H100.065V47.4443H102.683ZM107.602 44.2243C107.308 44.2243 107.042 43.9723 107.042 43.6643C107.042 43.3563 107.308 43.1183 107.602 43.1183C107.91 43.1183 108.162 43.3563 108.162 43.6643C108.162 43.9723 107.91 44.2243 107.602 44.2243ZM107.966 52.0503H107.238V45.2883H107.966V52.0503ZM113.228 52.2183C111.254 52.2183 109.854 50.7483 109.854 48.6623C109.854 46.7023 111.226 45.1203 113.102 45.1203C115.16 45.1203 116.294 46.7443 116.294 48.7043V48.9003H110.638C110.708 50.3703 111.688 51.5883 113.284 51.5883C114.138 51.5883 114.922 51.2663 115.496 50.6503L115.874 51.1263C115.202 51.8263 114.348 52.2183 113.228 52.2183ZM115.552 48.3263C115.538 47.1783 114.782 45.7503 113.088 45.7503C111.492 45.7503 110.694 47.1503 110.638 48.3263H115.552ZM121.073 52.2183C119.085 52.2183 117.797 50.6363 117.797 48.6623C117.797 46.6883 119.085 45.1203 121.073 45.1203C122.249 45.1203 122.921 45.5823 123.467 46.2683L122.963 46.7163C122.473 46.0443 121.857 45.7783 121.115 45.7783C119.533 45.7783 118.567 47.0383 118.567 48.6623C118.567 50.2863 119.533 51.5603 121.115 51.5603C121.857 51.5603 122.473 51.2803 122.963 50.6083L123.467 51.0563C122.921 51.7563 122.249 52.2183 121.073 52.2183ZM128.089 52.2183C126.115 52.2183 124.715 50.7483 124.715 48.6623C124.715 46.7023 126.087 45.1203 127.963 45.1203C130.021 45.1203 131.155 46.7443 131.155 48.7043V48.9003H125.499C125.569 50.3703 126.549 51.5883 128.145 51.5883C128.999 51.5883 129.783 51.2663 130.357 50.6503L130.735 51.1263C130.063 51.8263 129.209 52.2183 128.089 52.2183ZM130.413 48.3263C130.399 47.1783 129.643 45.7503 127.949 45.7503C126.353 45.7503 125.555 47.1503 125.499 48.3263H130.413ZM137.485 52.0503H136.687V42.7123H140.187C141.979 42.7123 143.001 43.9723 143.001 45.4423C143.001 46.9123 141.965 48.1723 140.187 48.1723H137.485V52.0503ZM140.103 47.4443C141.349 47.4443 142.161 46.6043 142.161 45.4423C142.161 44.2663 141.349 43.4403 140.103 43.4403H137.485V47.4443H140.103ZM145.385 52.0503H144.657V45.2883H145.385V46.4503C145.959 45.6943 146.729 45.1483 147.667 45.1483V45.9463C147.541 45.9183 147.443 45.9183 147.303 45.9183C146.617 45.9183 145.693 46.5343 145.385 47.1223V52.0503ZM149.465 44.2243C149.171 44.2243 148.905 43.9723 148.905 43.6643C148.905 43.3563 149.171 43.1183 149.465 43.1183C149.773 43.1183 150.025 43.3563 150.025 43.6643C150.025 43.9723 149.773 44.2243 149.465 44.2243ZM149.829 52.0503H149.101V45.2883H149.829V52.0503ZM157.387 52.0503H156.659V47.4723C156.659 46.1703 156.001 45.7783 155.021 45.7783C154.153 45.7783 153.257 46.3243 152.823 46.9403V52.0503H152.095V45.2883H152.823V46.3103C153.313 45.7223 154.279 45.1203 155.259 45.1203C156.631 45.1203 157.387 45.7923 157.387 47.3183V52.0503ZM161.125 52.2183C160.229 52.2183 159.795 51.6723 159.795 50.7483V45.9323H158.675V45.2883H159.795V43.4403H160.537V45.2883H161.909V45.9323H160.537V50.6363C160.537 51.1823 160.761 51.5603 161.237 51.5603C161.559 51.5603 161.839 51.4063 161.993 51.2383L162.273 51.7983C162.007 52.0503 161.685 52.2183 161.125 52.2183ZM166.507 52.2183C164.533 52.2183 163.133 50.7483 163.133 48.6623C163.133 46.7023 164.505 45.1203 166.381 45.1203C168.439 45.1203 169.573 46.7443 169.573 48.7043V48.9003H163.917C163.987 50.3703 164.967 51.5883 166.563 51.5883C167.417 51.5883 168.201 51.2663 168.775 50.6503L169.153 51.1263C168.481 51.8263 167.627 52.2183 166.507 52.2183ZM168.831 48.3263C168.817 47.1783 168.061 45.7503 166.367 45.7503C164.771 45.7503 163.973 47.1503 163.917 48.3263H168.831ZM177.18 52.0503H176.438V50.9723C175.962 51.6723 175.094 52.2183 174.086 52.2183C172.294 52.2183 171.076 50.8463 171.076 48.6763C171.076 46.5343 172.294 45.1203 174.086 45.1203C175.052 45.1203 175.906 45.6103 176.438 46.3803V42.7123H177.18V52.0503ZM174.212 51.5603C175.164 51.5603 176.046 51.0003 176.438 50.3563V47.0103C176.046 46.3523 175.164 45.7783 174.212 45.7783C172.714 45.7783 171.846 47.0383 171.846 48.6763C171.846 50.3143 172.714 51.5603 174.212 51.5603ZM18.3 72.0503H12.966V62.7123H13.778V71.3223H18.3V72.0503ZM24.7088 72.0503H23.9808V71.2523C23.3788 71.9103 22.6228 72.2183 21.6848 72.2183C20.5228 72.2183 19.3188 71.4203 19.3188 69.9643C19.3188 68.4943 20.5088 67.7243 21.6848 67.7243C22.6228 67.7243 23.3928 68.0323 23.9808 68.6903V67.3183C23.9808 66.3103 23.1688 65.7643 22.1748 65.7643C21.3208 65.7643 20.6628 66.0583 20.0468 66.7583L19.6408 66.2543C20.3408 65.4983 21.1248 65.1203 22.2448 65.1203C23.6168 65.1203 24.7088 65.7783 24.7088 67.2903V72.0503ZM21.9368 71.6443C22.7488 71.6443 23.5048 71.3363 23.9808 70.7203V69.2363C23.5048 68.6063 22.7488 68.2983 21.9368 68.2983C20.8308 68.2983 20.0888 69.0123 20.0888 69.9783C20.0888 70.9303 20.8308 71.6443 21.9368 71.6443ZM33.4796 72.0503H32.7796L30.8896 66.2683L28.9856 72.0503H28.2856L26.0876 65.2883H26.8716L28.6636 71.0283L30.5676 65.2883H31.1976L33.1016 71.0283L34.8936 65.2883H35.6776L33.4796 72.0503ZM42.3381 72.0503H41.6101V67.4723C41.6101 66.1703 40.9521 65.7783 39.9721 65.7783C39.1041 65.7783 38.2081 66.3243 37.7741 66.9403V72.0503H37.0461V65.2883H37.7741V66.3103C38.2641 65.7223 39.2301 65.1203 40.2101 65.1203C41.5821 65.1203 42.3381 65.7923 42.3381 67.3183V72.0503ZM48.8597 72.3303H48.2577V62.4323H48.8597V72.3303ZM58.9789 72.2183C56.2349 72.2183 54.4429 70.1183 54.4429 67.3883C54.4429 64.6583 56.2349 62.5583 58.9789 62.5583C61.7089 62.5583 63.5149 64.6583 63.5149 67.3883C63.5149 70.1183 61.7089 72.2183 58.9789 72.2183ZM58.9789 71.4903C61.2189 71.4903 62.6749 69.7403 62.6749 67.3883C62.6749 65.0223 61.2189 63.2863 58.9789 63.2863C56.7249 63.2863 55.2829 65.0223 55.2829 67.3883C55.2829 69.7403 56.7249 71.4903 58.9789 71.4903ZM68.2661 72.0503H67.4541V63.4403H64.4021V62.7123H71.3181V63.4403H68.2661V72.0503ZM78.1145 72.0503H72.7805V62.7123H73.5925V71.3223H78.1145V72.0503ZM82.3757 68.9983H79.0157V68.3263H82.3757V68.9983ZM89.737 72.0503H83.577V71.3923C86.755 68.8303 88.883 67.0103 88.883 65.2043C88.883 63.8603 87.777 63.3003 86.755 63.3003C85.593 63.3003 84.697 63.8043 84.193 64.5183L83.647 64.0143C84.305 63.1183 85.439 62.5723 86.755 62.5723C88.127 62.5723 89.695 63.3563 89.695 65.2043C89.695 67.2623 87.525 69.1383 84.823 71.3223H89.737V72.0503ZM95.1274 72.2183C93.5734 72.2183 92.6214 71.6163 91.9774 70.6923L92.5094 70.1603C93.1114 71.0143 93.9234 71.4903 95.1274 71.4903C96.4854 71.4903 97.4654 70.5103 97.4654 69.2363C97.4654 67.8223 96.4854 66.9543 95.1414 66.9543C94.2874 66.9543 93.5594 67.2343 92.8734 67.8643L92.2714 67.6123V62.7123H97.6614V63.4403H93.0694V67.0943C93.5314 66.6463 94.3294 66.2263 95.2954 66.2263C96.8634 66.2263 98.2774 67.2623 98.2774 69.2083C98.2774 71.0703 96.8494 72.2183 95.1274 72.2183ZM102.87 68.9983H99.5098V68.3263H102.87V68.9983ZM106.913 72.2183C105.387 72.2183 104.281 71.5043 103.735 70.6643L104.281 70.1883C104.799 70.9303 105.709 71.4903 106.899 71.4903C108.341 71.4903 109.251 70.7343 109.251 69.5023C109.251 68.1583 108.145 67.5983 106.745 67.5983C106.367 67.5983 106.017 67.6123 105.877 67.6263V66.8703C106.017 66.8843 106.367 66.8843 106.745 66.8843C107.991 66.8843 109.111 66.3523 109.111 65.1063C109.111 63.9443 108.075 63.3003 106.871 63.3003C105.807 63.3003 105.051 63.7203 104.365 64.4903L103.861 63.9863C104.519 63.1883 105.555 62.5723 106.913 62.5723C108.537 62.5723 109.923 63.4543 109.923 65.0363C109.923 66.4643 108.719 67.0803 107.921 67.2203C108.733 67.3043 110.063 68.0043 110.063 69.5443C110.063 71.0843 108.901 72.2183 106.913 72.2183ZM117.846 72.0503H111.686V71.3923C114.864 68.8303 116.992 67.0103 116.992 65.2043C116.992 63.8603 115.886 63.3003 114.864 63.3003C113.702 63.3003 112.806 63.8043 112.302 64.5183L111.756 64.0143C112.414 63.1183 113.548 62.5723 114.864 62.5723C116.236 62.5723 117.804 63.3563 117.804 65.2043C117.804 67.2623 115.634 69.1383 112.932 71.3223H117.846V72.0503ZM121.641 72.0503H120.759L124.679 63.4403H119.513V62.7123H125.631V63.2723L121.641 72.0503Z" fill="white"/>
<path d="M16.06 100.034C14.52 100.034 13.358 99.4042 12.644 98.5502L13.162 97.9482C13.764 98.6342 14.744 99.3062 16.088 99.3062C17.992 99.3062 18.538 98.2422 18.538 97.4442C18.538 94.7002 12.938 96.1282 12.938 92.8662C12.938 91.3402 14.31 90.3742 16.004 90.3742C17.39 90.3742 18.454 90.8642 19.168 91.6902L18.636 92.2782C17.964 91.4662 17.012 91.1022 15.962 91.1022C14.716 91.1022 13.778 91.8162 13.778 92.8242C13.778 95.2182 19.378 93.9022 19.378 97.3882C19.378 98.5922 18.58 100.034 16.06 100.034ZM26.5608 99.8662H25.8328V95.2602C25.8328 93.9582 25.1748 93.5942 24.1948 93.5942C23.3268 93.5942 22.4308 94.1402 21.9968 94.7562V99.8662H21.2688V90.5282H21.9968V94.1262C22.4868 93.5382 23.4528 92.9362 24.4328 92.9362C25.8048 92.9362 26.5608 93.5802 26.5608 95.1062V99.8662ZM31.6853 100.034C29.7113 100.034 28.4513 98.4522 28.4513 96.4782C28.4513 94.5042 29.7113 92.9362 31.6853 92.9362C33.6873 92.9362 34.9473 94.5042 34.9473 96.4782C34.9473 98.4522 33.6873 100.034 31.6853 100.034ZM31.6853 99.3762C33.2813 99.3762 34.1633 97.9902 34.1633 96.4782C34.1633 94.9802 33.2813 93.5942 31.6853 93.5942C30.1173 93.5942 29.2213 94.9802 29.2213 96.4782C29.2213 97.9902 30.1173 99.3762 31.6853 99.3762ZM39.9074 100.034C38.9554 100.034 38.1014 99.5442 37.5554 98.7742V102.442H36.8274V93.1042H37.5554V94.1682C38.0314 93.4822 38.8994 92.9362 39.9074 92.9362C41.7134 92.9362 42.9314 94.3082 42.9314 96.4782C42.9314 98.6342 41.7134 100.034 39.9074 100.034ZM39.7814 99.3762C41.2934 99.3762 42.1474 98.1162 42.1474 96.4782C42.1474 94.8402 41.2934 93.5942 39.7814 93.5942C38.8434 93.5942 37.9474 94.1542 37.5554 94.7982V98.1442C37.9474 98.7882 38.8434 99.3762 39.7814 99.3762ZM49.2198 99.8662H48.4218V90.5282H51.9218C53.7138 90.5282 54.7358 91.7882 54.7358 93.2582C54.7358 94.7282 53.6998 95.9882 51.9218 95.9882H49.2198V99.8662ZM51.8378 95.2602C53.0838 95.2602 53.8958 94.4202 53.8958 93.2582C53.8958 92.0822 53.0838 91.2562 51.8378 91.2562H49.2198V95.2602H51.8378ZM56.7558 92.0402C56.4618 92.0402 56.1958 91.7882 56.1958 91.4802C56.1958 91.1722 56.4618 90.9342 56.7558 90.9342C57.0638 90.9342 57.3158 91.1722 57.3158 91.4802C57.3158 91.7882 57.0638 92.0402 56.7558 92.0402ZM57.1198 99.8662H56.3918V93.1042H57.1198V99.8662ZM64.678 99.8662H63.95V95.2882C63.95 93.9862 63.292 93.5942 62.312 93.5942C61.444 93.5942 60.548 94.1402 60.114 94.7562V99.8662H59.386V93.1042H60.114V94.1262C60.604 93.5382 61.57 92.9362 62.55 92.9362C63.922 92.9362 64.678 93.6082 64.678 95.1342V99.8662ZM72.6165 99.8662H71.6365L68.9345 96.6462L67.6745 97.8362V99.8662H66.9465V90.5282H67.6745V96.9682L71.6505 93.1042H72.6305L69.4805 96.1562L72.6165 99.8662Z" fill="white"/>
<path d="M12 101.728H36.5481V102.008H12V101.728ZM37.8347 101.728H72.8825V102.008H37.8347V101.728Z" fill="white"/>
</svg>
