<svg width="29" height="28" viewBox="0 0 29 28" fill="none" xmlns="http://www.w3.org/2000/svg">
<g clip-path="url(#clip0_320_269)">
<g clip-path="url(#clip1_320_269)">
<path fill-rule="evenodd" clip-rule="evenodd" d="M13.258 2.02681C13.144 2.05499 12.8513 2.1042 12.6073 2.1363C12.1058 2.20217 11.7896 2.26702 11.2764 2.40927C11.0812 2.46337 10.848 2.52216 10.7582 2.53999C10.6683 2.55777 10.5802 2.59605 10.5624 2.62495C10.5446 2.65389 10.4891 2.67755 10.439 2.67755C10.3889 2.67755 10.2507 2.72041 10.1319 2.77278C10.0132 2.82516 9.86274 2.89013 9.79768 2.91717C9.17081 3.17778 8.03956 3.78168 8.00348 3.87495C7.9926 3.90295 7.95894 3.92589 7.9286 3.92589C7.8811 3.92589 7.07069 4.48765 6.98805 4.57789C6.97178 4.59567 6.85201 4.6897 6.72188 4.7869C6.45098 4.98925 5.03611 6.41539 5.03611 6.48613C5.03611 6.51193 5.00221 6.56834 4.96075 6.61156C4.81885 6.7594 4.26716 7.55014 4.26716 7.6056C4.26716 7.63609 4.24432 7.66992 4.21647 7.68086C4.12366 7.71711 3.52275 8.85401 3.26344 9.484C3.23653 9.54939 3.17188 9.70056 3.11977 9.81993C3.06766 9.93929 3.02501 10.0782 3.02501 10.1285C3.02501 10.1789 3.00147 10.2347 2.97266 10.2526C2.94391 10.2704 2.90582 10.359 2.88813 10.4493C2.87039 10.5396 2.81189 10.774 2.75807 10.9701C2.45303 12.0819 2.34892 12.9011 2.35011 14.1802C2.35135 15.4886 2.4609 16.3665 2.75807 17.4497C2.8119 17.6458 2.87039 17.8802 2.88813 17.9704C2.90582 18.0607 2.94391 18.1494 2.97266 18.1672C3.00147 18.185 3.02501 18.2409 3.02501 18.2912C3.02501 18.3416 3.06766 18.4804 3.11977 18.5999C3.17188 18.7192 3.23653 18.8704 3.26344 18.9358C3.52275 19.5657 4.12366 20.7026 4.21647 20.7389C4.24432 20.7498 4.26716 20.7836 4.26716 20.8142C4.26716 20.8696 4.81885 21.6604 4.96075 21.8082C5.00221 21.8514 5.03611 21.9097 5.03611 21.9378C5.03611 22.0053 6.74217 23.7211 6.8093 23.7211C6.83788 23.7211 6.89649 23.7551 6.93949 23.7968C7.06495 23.9184 7.86957 24.4939 7.91411 24.4939C7.93646 24.4939 7.99674 24.5314 8.04808 24.5775C8.23085 24.741 9.20577 25.2565 9.79768 25.5026C9.86274 25.5296 10.0132 25.5946 10.1319 25.647C10.2507 25.6994 10.3889 25.7422 10.439 25.7422C10.4891 25.7422 10.5446 25.7659 10.5624 25.7948C10.5802 25.8237 10.6683 25.862 10.7582 25.8797C10.848 25.8975 11.0812 25.9564 11.2764 26.0105C11.6519 26.1146 12.0382 26.2029 12.3559 26.2573L12.5481 26.2902L12.5481 22.0631L12.5481 17.836L11.0743 17.836C10.2636 17.836 9.55823 17.8198 9.50678 17.7999C9.42433 17.7682 9.4132 17.5524 9.4132 15.9868L9.4132 14.2099L10.9807 14.2099L12.5481 14.2099L12.5524 12.5603C12.5548 11.653 12.5794 10.7769 12.6072 10.6135C12.6349 10.45 12.6764 10.2026 12.6994 10.0636C12.7223 9.92467 12.7614 9.81095 12.786 9.81095C12.8108 9.81095 12.8449 9.72398 12.862 9.61775C12.9045 9.35221 13.0408 8.97872 13.095 8.97872C13.1195 8.97872 13.1396 8.95066 13.1396 8.91642C13.1396 8.78541 13.5556 8.20902 13.8643 7.91222C14.2124 7.57772 14.6619 7.25547 14.781 7.25506C14.8217 7.25493 14.855 7.22807 14.855 7.19537C14.855 7.16267 14.8843 7.13592 14.92 7.13592C14.9557 7.13592 15.0689 7.0999 15.1714 7.05592C15.7723 6.79786 16.7523 6.63658 17.4783 6.67623C18.4265 6.72807 19.554 6.84476 19.6601 6.90212C19.7166 6.93262 19.8031 6.95759 19.8524 6.95759C19.9046 6.95759 19.9435 7.01323 19.9457 7.09134C19.9478 7.16488 19.9544 7.84575 19.9605 8.6044L19.9715 9.9837L19.0843 10.0087C18.1452 10.0351 17.7369 10.0906 17.397 10.2382C17.0162 10.4036 16.5703 10.9395 16.5703 11.2319C16.5703 11.3005 16.5438 11.3565 16.5112 11.3565C16.4734 11.3565 16.4521 11.8717 16.4521 12.7832L16.4521 14.2099L18.1259 14.2099L19.7998 14.2099L19.7506 14.73C19.7236 15.0161 19.6759 15.3438 19.6446 15.4583C19.6133 15.5726 19.5875 15.7799 19.5873 15.9189C19.5872 16.0579 19.5643 16.1716 19.5366 16.1716C19.5089 16.1716 19.4701 16.3789 19.4506 16.6322C19.4082 17.1809 19.2919 17.7298 19.2056 17.7905C19.1713 17.8146 18.5378 17.8346 17.7977 17.8351L16.4521 17.836L16.4521 22.0631L16.4521 26.2902L16.6738 26.2517C16.7959 26.2305 16.9957 26.198 17.1178 26.1795C17.2401 26.161 17.3548 26.1219 17.3727 26.0926C17.3907 26.0633 17.4674 26.0395 17.543 26.0395C17.6916 26.0395 18.2509 25.8839 18.4179 25.7961C18.4744 25.7664 18.5503 25.7422 18.5865 25.7422C18.6227 25.7422 18.7495 25.6994 18.8683 25.647C18.9871 25.5946 19.1374 25.5296 19.2025 25.5026C19.7945 25.2565 20.7694 24.741 20.9521 24.5775C21.0034 24.5314 21.0637 24.4939 21.086 24.4939C21.1307 24.4939 21.9353 23.9184 22.0607 23.7968C22.1037 23.7551 22.1624 23.7211 22.1909 23.7211C22.2581 23.7211 23.9641 22.0053 23.9641 21.9378C23.9641 21.9097 23.9979 21.8514 24.0394 21.8082C24.1605 21.6821 24.733 20.8735 24.733 20.8287C24.733 20.8062 24.7705 20.7457 24.8162 20.6941C24.9789 20.5104 25.4919 19.5306 25.7367 18.9358C25.7636 18.8704 25.8283 18.7192 25.8804 18.5999C25.9325 18.4804 25.9752 18.3416 25.9752 18.2912C25.9752 18.2409 25.9988 18.185 26.0276 18.1672C26.0563 18.1494 26.0943 18.0607 26.112 17.9704C26.1298 17.8802 26.1883 17.6458 26.2422 17.4497C26.5393 16.3665 26.6488 15.4886 26.6501 14.1802C26.6513 12.9011 26.5472 12.0819 26.2422 10.9701C26.1883 10.774 26.1298 10.5396 26.112 10.4493C26.0943 10.359 26.0563 10.2704 26.0276 10.2526C25.9988 10.2347 25.9752 10.1789 25.9752 10.1285C25.9752 10.0782 25.9325 9.93929 25.8804 9.81993C25.8283 9.70055 25.7636 9.54939 25.7367 9.484C25.4919 8.88914 24.9789 7.90936 24.8162 7.72568C24.7705 7.67407 24.733 7.61351 24.733 7.59103C24.733 7.54627 24.1605 6.73764 24.0394 6.61156C23.9979 6.56834 23.9641 6.51258 23.9641 6.48762C23.9641 6.41717 22.6066 5.04869 22.3079 4.8181C22.1615 4.7051 22.0285 4.5975 22.0121 4.57908C21.9351 4.49193 21.1201 3.92589 21.0716 3.92589C21.0412 3.92589 21.0076 3.90295 20.9967 3.87495C20.9607 3.78168 19.8294 3.17778 19.2025 2.91717C19.1374 2.89013 18.9871 2.82516 18.8683 2.77278C18.7495 2.72041 18.6113 2.67755 18.5612 2.67755C18.5111 2.67755 18.4556 2.65389 18.4378 2.62495C18.4201 2.59604 18.3319 2.55777 18.2421 2.53999C18.1522 2.52216 17.9189 2.46337 17.7238 2.40927C16.7142 2.12953 15.8312 2.01337 14.5593 1.9931C13.9574 1.98353 13.3718 1.99869 13.258 2.02681Z" fill="white"/>
</g>
</g>
<defs>
<clipPath id="clip0_320_269">
<rect width="29" height="27" fill="white" transform="translate(0 0.640137)"/>
</clipPath>
<clipPath id="clip1_320_269">
<rect width="29" height="27" fill="white" transform="translate(0 0.640137)"/>
</clipPath>
</defs>
</svg>
