<svg width="28" height="29" viewBox="0 0 28 29" fill="none" xmlns="http://www.w3.org/2000/svg">
<g clip-path="url(#clip0_320_279)">
<g clip-path="url(#clip1_320_279)">
<g clip-path="url(#clip2_320_279)">
<path fill-rule="evenodd" clip-rule="evenodd" d="M11.9328 19.2763C12.8192 19.3049 13.6198 20.4772 15.9644 20.4772C20.3677 20.5058 23.3986 17.1319 24.3421 12.6999C27.6303 -2.65444 5.24206 -3.88394 2.95464 8.75414C2.41137 11.7278 3.29775 15.159 5.61378 16.2741C7.38654 17.1319 7.50092 14.6729 6.95765 13.615C4.55584 8.92569 7.44373 4.69393 11.218 3.49304C14.7635 2.34931 17.2797 3.29288 19.1954 5.26579C21.6544 7.81057 20.5393 14.73 17.6228 16.9317C16.5935 17.7038 14.7063 17.8752 13.7342 16.9603C11.7327 15.1018 14.8207 11.1559 14.3632 8.26805C13.9057 5.40876 9.38805 5.83765 9.1593 10.0408C9.04493 12.1853 9.67397 12.8143 9.18789 14.9587C8.41589 18.39 6.07127 25.3952 7.72966 28.1401C10.1601 26.9964 11.361 20.1342 11.9328 19.2763Z" fill="white"/>
</g>
</g>
</g>
<defs>
<clipPath id="clip0_320_279">
<rect width="28" height="28" fill="white" transform="translate(0 0.140137)"/>
</clipPath>
<clipPath id="clip1_320_279">
<rect width="28" height="28" fill="white" transform="translate(0 0.140137)"/>
</clipPath>
<clipPath id="clip2_320_279">
<rect width="22.4" height="28" fill="white" transform="translate(2.7998 0.140137)"/>
</clipPath>
</defs>
</svg>
