<svg width="14" height="14" viewBox="0 0 14 14" fill="none" xmlns="http://www.w3.org/2000/svg">
<path d="M13.2375 13.795L8.01917 8.57667C7.60251 8.93167 7.12334 9.20639 6.58167 9.40083C6.04001 9.59528 5.49556 9.6925 4.94834 9.6925C3.6139 9.6925 2.48445 9.23056 1.56001 8.30667C0.635562 7.38278 0.17334 6.25361 0.17334 4.91917C0.17334 3.58472 0.635006 2.455 1.55834 1.53C2.48167 0.604999 3.61056 0.141944 4.94501 0.140833C6.27945 0.139722 7.40945 0.601944 8.33501 1.5275C9.26056 2.45306 9.72334 3.58278 9.72334 4.91667C9.72334 5.49555 9.62084 6.05583 9.41584 6.5975C9.21084 7.13917 8.9414 7.6025 8.60751 7.9875L13.8258 13.205L13.2375 13.795ZM4.94917 8.85833C6.05473 8.85833 6.98806 8.47778 7.74917 7.71667C8.51028 6.95555 8.89084 6.02194 8.89084 4.91583C8.89084 3.80972 8.51028 2.87639 7.74917 2.11583C6.98806 1.35528 6.05473 0.974722 4.94917 0.974166C3.84362 0.973611 2.91001 1.35417 2.14834 2.11583C1.38667 2.8775 1.00612 3.81083 1.00667 4.91583C1.00723 6.02083 1.38778 6.95417 2.14834 7.71583C2.9089 8.4775 3.84223 8.85806 4.94834 8.8575" fill="black"/>
</svg>
