<svg width="18" height="17" viewBox="0 0 18 17" fill="none" xmlns="http://www.w3.org/2000/svg">
<g clip-path="url(#clip0_320_18137)">
<path fill-rule="evenodd" clip-rule="evenodd" d="M9 7C9.39397 7 9.78407 6.9224 10.148 6.77164C10.512 6.62087 10.8427 6.3999 11.1213 6.12132C11.3999 5.84274 11.6209 5.51203 11.7716 5.14805C11.9224 4.78407 12 4.39397 12 4C12 3.60603 11.9224 3.21593 11.7716 2.85195C11.6209 2.48797 11.3999 2.15726 11.1213 1.87868C10.8427 1.6001 10.512 1.37913 10.148 1.22836C9.78407 1.0776 9.39397 1 9 1C8.20435 1 7.44129 1.31607 6.87868 1.87868C6.31607 2.44129 6 3.20435 6 4C6 4.79565 6.31607 5.55871 6.87868 6.12132C7.44129 6.68393 8.20435 7 9 7ZM9 8C10.0609 8 11.0783 7.57857 11.8284 6.82843C12.5786 6.07828 13 5.06087 13 4C13 2.93913 12.5786 1.92172 11.8284 1.17157C11.0783 0.421427 10.0609 0 9 0C7.93913 0 6.92172 0.421427 6.17157 1.17157C5.42143 1.92172 5 2.93913 5 4C5 5.06087 5.42143 6.07828 6.17157 6.82843C6.92172 7.57857 7.93913 8 9 8Z" fill="black"/>
<path d="M7 11H11C13.761 11 17 13.239 17 16V17H18V16C18 12.686 14.314 10 11 10H7C3.686 10 0 12.686 0 16V17H1V16C1 13.239 4.239 11 7 11Z" fill="black"/>
</g>
<defs>
<clipPath id="clip0_320_18137">
<rect width="18" height="17" fill="white"/>
</clipPath>
</defs>
</svg>
