<svg width="20" height="20" viewBox="0 0 20 20" fill="none" xmlns="http://www.w3.org/2000/svg">
<path d="M3.53317 10.2083C3.20368 9.88102 2.94262 9.49141 2.76521 9.0622C2.5878 8.63299 2.49759 8.17276 2.49984 7.70833C2.49984 6.76902 2.87298 5.86819 3.53717 5.204C4.20136 4.5398 5.1022 4.16667 6.0415 4.16667C7.35817 4.16667 8.50817 4.88333 9.1165 5.95H10.0498C10.3591 5.40755 10.8066 4.95674 11.3467 4.64348C11.8869 4.33022 12.5004 4.1657 13.1248 4.16667C14.0641 4.16667 14.965 4.5398 15.6292 5.204C16.2934 5.86819 16.6665 6.76902 16.6665 7.70833C16.6665 8.68333 16.2498 9.58333 15.6332 10.2083L9.58317 16.25L3.53317 10.2083ZM16.2165 10.8C17.0082 10 17.4998 8.91667 17.4998 7.70833C17.4998 6.54801 17.0389 5.43521 16.2184 4.61474C15.398 3.79427 14.2852 3.33333 13.1248 3.33333C11.6665 3.33333 10.3748 4.04167 9.58317 5.14167C9.17909 4.58041 8.64701 4.1236 8.03107 3.80911C7.41513 3.49461 6.73308 3.33151 6.0415 3.33333C4.88118 3.33333 3.76838 3.79427 2.94791 4.61474C2.12744 5.43521 1.6665 6.54801 1.6665 7.70833C1.6665 8.91667 2.15817 10 2.94984 10.8L9.58317 17.4333L16.2165 10.8Z" fill="black"/>
</svg>
